ISO-10303-21;
HEADER;
/* Generated by software containing ST-Developer
 * from STEP Tools, Inc. (www.steptools.com) 
 */

FILE_DESCRIPTION(
/* description */ (''),
/* implementation_level */ '2;1');

FILE_NAME(
/* name */ 'Bottom case.step',
/* time_stamp */ '2026-08-23T18:48:53+05:30',
/* author */ (''),
/* organization */ (''),
/* preprocessor_version */ 'ST-DEVELOPER v20.1',
/* originating_system */ 'Autodesk Translation Framework v15.8.0.0',
/* authorisation */ '');

FILE_SCHEMA (('AUTOMOTIVE_DESIGN { 1 0 10303 214 3 1 1 }'));
ENDSEC;

DATA;
#10=MECHANICAL_DESIGN_GEOMETRIC_PRESENTATION_REPRESENTATION('',(#13),#1073);
#11=SHAPE_REPRESENTATION_RELATIONSHIP('SRR','None',#1080,#12);
#12=ADVANCED_BREP_SHAPE_REPRESENTATION('',(#14),#1072);
#13=STYLED_ITEM('',(#1089),#14);
#14=MANIFOLD_SOLID_BREP('Body1',#649);
#15=ELLIPSE('',#691,1.41421356237309,1.);
#16=ELLIPSE('',#692,1.41421356237309,1.);
#17=ELLIPSE('',#694,1.4142135623731,1.);
#18=ELLIPSE('',#696,1.41421356237309,1.);
#19=ELLIPSE('',#701,2.12132034355964,1.5);
#20=ELLIPSE('',#702,2.12132034355964,1.5);
#21=ELLIPSE('',#704,2.12132034355964,1.5);
#22=ELLIPSE('',#706,2.12132034355964,1.5);
#23=FACE_BOUND('',#90,.T.);
#24=FACE_BOUND('',#95,.T.);
#25=FACE_BOUND('',#99,.T.);
#26=FACE_BOUND('',#100,.T.);
#27=FACE_BOUND('',#106,.T.);
#28=FACE_BOUND('',#118,.T.);
#29=FACE_BOUND('',#119,.T.);
#30=PLANE('',#666);
#31=PLANE('',#670);
#32=PLANE('',#675);
#33=PLANE('',#678);
#34=PLANE('',#679);
#35=PLANE('',#680);
#36=PLANE('',#681);
#37=PLANE('',#682);
#38=PLANE('',#683);
#39=PLANE('',#684);
#40=PLANE('',#685);
#41=PLANE('',#686);
#42=PLANE('',#687);
#43=PLANE('',#688);
#44=PLANE('',#689);
#45=PLANE('',#698);
#46=PLANE('',#699);
#47=PLANE('',#708);
#48=PLANE('',#709);
#49=PLANE('',#710);
#50=PLANE('',#711);
#51=PLANE('',#712);
#52=PLANE('',#713);
#53=FACE_OUTER_BOUND('',#88,.T.);
#54=FACE_OUTER_BOUND('',#89,.T.);
#55=FACE_OUTER_BOUND('',#91,.T.);
#56=FACE_OUTER_BOUND('',#92,.T.);
#57=FACE_OUTER_BOUND('',#93,.T.);
#58=FACE_OUTER_BOUND('',#94,.T.);
#59=FACE_OUTER_BOUND('',#96,.T.);
#60=FACE_OUTER_BOUND('',#97,.T.);
#61=FACE_OUTER_BOUND('',#98,.T.);
#62=FACE_OUTER_BOUND('',#101,.T.);
#63=FACE_OUTER_BOUND('',#102,.T.);
#64=FACE_OUTER_BOUND('',#103,.T.);
#65=FACE_OUTER_BOUND('',#104,.T.);
#66=FACE_OUTER_BOUND('',#105,.T.);
#67=FACE_OUTER_BOUND('',#107,.T.);
#68=FACE_OUTER_BOUND('',#108,.T.);
#69=FACE_OUTER_BOUND('',#109,.T.);
#70=FACE_OUTER_BOUND('',#110,.T.);
#71=FACE_OUTER_BOUND('',#111,.T.);
#72=FACE_OUTER_BOUND('',#112,.T.);
#73=FACE_OUTER_BOUND('',#113,.T.);
#74=FACE_OUTER_BOUND('',#114,.T.);
#75=FACE_OUTER_BOUND('',#115,.T.);
#76=FACE_OUTER_BOUND('',#116,.T.);
#77=FACE_OUTER_BOUND('',#117,.T.);
#78=FACE_OUTER_BOUND('',#120,.T.);
#79=FACE_OUTER_BOUND('',#121,.T.);
#80=FACE_OUTER_BOUND('',#122,.T.);
#81=FACE_OUTER_BOUND('',#123,.T.);
#82=FACE_OUTER_BOUND('',#124,.T.);
#83=FACE_OUTER_BOUND('',#125,.T.);
#84=FACE_OUTER_BOUND('',#126,.T.);
#85=FACE_OUTER_BOUND('',#127,.T.);
#86=FACE_OUTER_BOUND('',#128,.T.);
#87=FACE_OUTER_BOUND('',#129,.T.);
#88=EDGE_LOOP('',(#426,#427,#428,#429));
#89=EDGE_LOOP('',(#430,#431,#432,#433,#434,#435,#436,#437));
#90=EDGE_LOOP('',(#438,#439,#440,#441));
#91=EDGE_LOOP('',(#442,#443,#444,#445));
#92=EDGE_LOOP('',(#446,#447,#448,#449));
#93=EDGE_LOOP('',(#450,#451,#452,#453));
#94=EDGE_LOOP('',(#454,#455,#456,#457));
#95=EDGE_LOOP('',(#458,#459,#460,#461));
#96=EDGE_LOOP('',(#462,#463,#464,#465));
#97=EDGE_LOOP('',(#466,#467,#468,#469));
#98=EDGE_LOOP('',(#470,#471,#472,#473));
#99=EDGE_LOOP('',(#474,#475,#476,#477));
#100=EDGE_LOOP('',(#478,#479,#480,#481));
#101=EDGE_LOOP('',(#482,#483,#484,#485));
#102=EDGE_LOOP('',(#486,#487,#488,#489));
#103=EDGE_LOOP('',(#490,#491,#492,#493));
#104=EDGE_LOOP('',(#494,#495,#496,#497));
#105=EDGE_LOOP('',(#498,#499,#500,#501));
#106=EDGE_LOOP('',(#502,#503,#504,#505));
#107=EDGE_LOOP('',(#506,#507,#508,#509));
#108=EDGE_LOOP('',(#510,#511,#512,#513));
#109=EDGE_LOOP('',(#514,#515,#516,#517));
#110=EDGE_LOOP('',(#518,#519,#520,#521));
#111=EDGE_LOOP('',(#522,#523,#524,#525));
#112=EDGE_LOOP('',(#526,#527,#528,#529));
#113=EDGE_LOOP('',(#530,#531,#532,#533));
#114=EDGE_LOOP('',(#534,#535,#536,#537));
#115=EDGE_LOOP('',(#538,#539,#540,#541));
#116=EDGE_LOOP('',(#542,#543,#544,#545));
#117=EDGE_LOOP('',(#546,#547,#548,#549));
#118=EDGE_LOOP('',(#550,#551,#552,#553));
#119=EDGE_LOOP('',(#554,#555,#556,#557));
#120=EDGE_LOOP('',(#558,#559,#560,#561));
#121=EDGE_LOOP('',(#562,#563,#564,#565));
#122=EDGE_LOOP('',(#566,#567,#568,#569));
#123=EDGE_LOOP('',(#570,#571,#572,#573));
#124=EDGE_LOOP('',(#574,#575,#576,#577));
#125=EDGE_LOOP('',(#578,#579,#580,#581));
#126=EDGE_LOOP('',(#582,#583,#584,#585));
#127=EDGE_LOOP('',(#586,#587,#588,#589));
#128=EDGE_LOOP('',(#590,#591,#592,#593));
#129=EDGE_LOOP('',(#594,#595,#596,#597,#598,#599,#600,#601));
#130=LINE('',#896,#202);
#131=LINE('',#899,#203);
#132=LINE('',#902,#204);
#133=LINE('',#906,#205);
#134=LINE('',#910,#206);
#135=LINE('',#913,#207);
#136=LINE('',#916,#208);
#137=LINE('',#918,#209);
#138=LINE('',#920,#210);
#139=LINE('',#921,#211);
#140=LINE('',#924,#212);
#141=LINE('',#925,#213);
#142=LINE('',#929,#214);
#143=LINE('',#932,#215);
#144=LINE('',#935,#216);
#145=LINE('',#938,#217);
#146=LINE('',#939,#218);
#147=LINE('',#942,#219);
#148=LINE('',#944,#220);
#149=LINE('',#946,#221);
#150=LINE('',#947,#222);
#151=LINE('',#951,#223);
#152=LINE('',#955,#224);
#153=LINE('',#956,#225);
#154=LINE('',#957,#226);
#155=LINE('',#960,#227);
#156=LINE('',#961,#228);
#157=LINE('',#964,#229);
#158=LINE('',#966,#230);
#159=LINE('',#968,#231);
#160=LINE('',#969,#232);
#161=LINE('',#972,#233);
#162=LINE('',#974,#234);
#163=LINE('',#976,#235);
#164=LINE('',#977,#236);
#165=LINE('',#980,#237);
#166=LINE('',#982,#238);
#167=LINE('',#983,#239);
#168=LINE('',#986,#240);
#169=LINE('',#987,#241);
#170=LINE('',#990,#242);
#171=LINE('',#992,#243);
#172=LINE('',#993,#244);
#173=LINE('',#996,#245);
#174=LINE('',#997,#246);
#175=LINE('',#1000,#247);
#176=LINE('',#1001,#248);
#177=LINE('',#1004,#249);
#178=LINE('',#1006,#250);
#179=LINE('',#1008,#251);
#180=LINE('',#1009,#252);
#181=LINE('',#1011,#253);
#182=LINE('',#1012,#254);
#183=LINE('',#1014,#255);
#184=LINE('',#1016,#256);
#185=LINE('',#1018,#257);
#186=LINE('',#1023,#258);
#187=LINE('',#1028,#259);
#188=LINE('',#1032,#260);
#189=LINE('',#1034,#261);
#190=LINE('',#1037,#262);
#191=LINE('',#1038,#263);
#192=LINE('',#1040,#264);
#193=LINE('',#1042,#265);
#194=LINE('',#1045,#266);
#195=LINE('',#1047,#267);
#196=LINE('',#1049,#268);
#197=LINE('',#1050,#269);
#198=LINE('',#1058,#270);
#199=LINE('',#1061,#271);
#200=LINE('',#1063,#272);
#201=LINE('',#1067,#273);
#202=VECTOR('',#720,10.);
#203=VECTOR('',#723,10.);
#204=VECTOR('',#726,10.);
#205=VECTOR('',#729,10.);
#206=VECTOR('',#732,10.);
#207=VECTOR('',#735,10.);
#208=VECTOR('',#736,10.);
#209=VECTOR('',#737,10.);
#210=VECTOR('',#738,10.);
#211=VECTOR('',#739,10.);
#212=VECTOR('',#742,10.);
#213=VECTOR('',#743,10.);
#214=VECTOR('',#748,10.);
#215=VECTOR('',#751,10.);
#216=VECTOR('',#754,10.);
#217=VECTOR('',#757,10.);
#218=VECTOR('',#758,10.);
#219=VECTOR('',#759,10.);
#220=VECTOR('',#760,10.);
#221=VECTOR('',#761,10.);
#222=VECTOR('',#762,10.);
#223=VECTOR('',#767,10.);
#224=VECTOR('',#770,10.);
#225=VECTOR('',#771,10.);
#226=VECTOR('',#772,10.);
#227=VECTOR('',#775,10.);
#228=VECTOR('',#776,10.);
#229=VECTOR('',#777,10.);
#230=VECTOR('',#778,10.);
#231=VECTOR('',#779,10.);
#232=VECTOR('',#780,10.);
#233=VECTOR('',#781,10.);
#234=VECTOR('',#782,10.);
#235=VECTOR('',#783,10.);
#236=VECTOR('',#784,10.);
#237=VECTOR('',#787,10.);
#238=VECTOR('',#788,10.);
#239=VECTOR('',#789,10.);
#240=VECTOR('',#792,10.);
#241=VECTOR('',#793,10.);
#242=VECTOR('',#796,10.);
#243=VECTOR('',#797,10.);
#244=VECTOR('',#798,10.);
#245=VECTOR('',#801,10.);
#246=VECTOR('',#802,10.);
#247=VECTOR('',#805,10.);
#248=VECTOR('',#806,10.);
#249=VECTOR('',#807,10.);
#250=VECTOR('',#808,10.);
#251=VECTOR('',#809,10.);
#252=VECTOR('',#810,10.);
#253=VECTOR('',#813,10.);
#254=VECTOR('',#814,10.);
#255=VECTOR('',#817,10.);
#256=VECTOR('',#820,10.);
#257=VECTOR('',#823,10.);
#258=VECTOR('',#828,10.);
#259=VECTOR('',#835,10.);
#260=VECTOR('',#840,10.);
#261=VECTOR('',#841,10.);
#262=VECTOR('',#846,10.);
#263=VECTOR('',#847,10.);
#264=VECTOR('',#850,10.);
#265=VECTOR('',#853,10.);
#266=VECTOR('',#854,10.);
#267=VECTOR('',#855,10.);
#268=VECTOR('',#856,10.);
#269=VECTOR('',#857,10.);
#270=VECTOR('',#870,10.);
#271=VECTOR('',#875,10.);
#272=VECTOR('',#878,10.);
#273=VECTOR('',#885,10.);
#274=CIRCLE('',#664,3.);
#275=CIRCLE('',#665,3.);
#276=CIRCLE('',#667,3.);
#277=CIRCLE('',#668,3.);
#278=CIRCLE('',#669,3.);
#279=CIRCLE('',#672,3.);
#280=CIRCLE('',#674,3.);
#281=CIRCLE('',#677,3.);
#282=VERTEX_POINT('',#892);
#283=VERTEX_POINT('',#893);
#284=VERTEX_POINT('',#895);
#285=VERTEX_POINT('',#897);
#286=VERTEX_POINT('',#901);
#287=VERTEX_POINT('',#903);
#288=VERTEX_POINT('',#905);
#289=VERTEX_POINT('',#907);
#290=VERTEX_POINT('',#909);
#291=VERTEX_POINT('',#911);
#292=VERTEX_POINT('',#914);
#293=VERTEX_POINT('',#915);
#294=VERTEX_POINT('',#917);
#295=VERTEX_POINT('',#919);
#296=VERTEX_POINT('',#923);
#297=VERTEX_POINT('',#927);
#298=VERTEX_POINT('',#931);
#299=VERTEX_POINT('',#933);
#300=VERTEX_POINT('',#937);
#301=VERTEX_POINT('',#940);
#302=VERTEX_POINT('',#941);
#303=VERTEX_POINT('',#943);
#304=VERTEX_POINT('',#945);
#305=VERTEX_POINT('',#949);
#306=VERTEX_POINT('',#953);
#307=VERTEX_POINT('',#954);
#308=VERTEX_POINT('',#959);
#309=VERTEX_POINT('',#962);
#310=VERTEX_POINT('',#963);
#311=VERTEX_POINT('',#965);
#312=VERTEX_POINT('',#967);
#313=VERTEX_POINT('',#970);
#314=VERTEX_POINT('',#971);
#315=VERTEX_POINT('',#973);
#316=VERTEX_POINT('',#975);
#317=VERTEX_POINT('',#979);
#318=VERTEX_POINT('',#981);
#319=VERTEX_POINT('',#985);
#320=VERTEX_POINT('',#989);
#321=VERTEX_POINT('',#991);
#322=VERTEX_POINT('',#995);
#323=VERTEX_POINT('',#999);
#324=VERTEX_POINT('',#1002);
#325=VERTEX_POINT('',#1003);
#326=VERTEX_POINT('',#1005);
#327=VERTEX_POINT('',#1007);
#328=VERTEX_POINT('',#1021);
#329=VERTEX_POINT('',#1022);
#330=VERTEX_POINT('',#1027);
#331=VERTEX_POINT('',#1031);
#332=VERTEX_POINT('',#1033);
#333=VERTEX_POINT('',#1043);
#334=VERTEX_POINT('',#1044);
#335=VERTEX_POINT('',#1046);
#336=VERTEX_POINT('',#1048);
#337=VERTEX_POINT('',#1057);
#338=EDGE_CURVE('',#282,#283,#274,.T.);
#339=EDGE_CURVE('',#283,#284,#130,.T.);
#340=EDGE_CURVE('',#284,#285,#275,.T.);
#341=EDGE_CURVE('',#285,#282,#131,.T.);
#342=EDGE_CURVE('',#282,#286,#132,.T.);
#343=EDGE_CURVE('',#287,#286,#276,.T.);
#344=EDGE_CURVE('',#287,#288,#133,.T.);
#345=EDGE_CURVE('',#289,#288,#277,.T.);
#346=EDGE_CURVE('',#289,#290,#134,.T.);
#347=EDGE_CURVE('',#291,#290,#278,.T.);
#348=EDGE_CURVE('',#291,#283,#135,.T.);
#349=EDGE_CURVE('',#292,#293,#136,.T.);
#350=EDGE_CURVE('',#293,#294,#137,.T.);
#351=EDGE_CURVE('',#294,#295,#138,.T.);
#352=EDGE_CURVE('',#295,#292,#139,.T.);
#353=EDGE_CURVE('',#296,#285,#140,.T.);
#354=EDGE_CURVE('',#286,#296,#141,.T.);
#355=EDGE_CURVE('',#296,#297,#279,.T.);
#356=EDGE_CURVE('',#297,#287,#142,.T.);
#357=EDGE_CURVE('',#288,#298,#143,.T.);
#358=EDGE_CURVE('',#298,#299,#280,.T.);
#359=EDGE_CURVE('',#299,#289,#144,.T.);
#360=EDGE_CURVE('',#300,#299,#145,.T.);
#361=EDGE_CURVE('',#290,#300,#146,.T.);
#362=EDGE_CURVE('',#301,#302,#147,.T.);
#363=EDGE_CURVE('',#302,#303,#148,.T.);
#364=EDGE_CURVE('',#303,#304,#149,.T.);
#365=EDGE_CURVE('',#304,#301,#150,.T.);
#366=EDGE_CURVE('',#300,#305,#281,.T.);
#367=EDGE_CURVE('',#305,#291,#151,.T.);
#368=EDGE_CURVE('',#306,#307,#152,.T.);
#369=EDGE_CURVE('',#294,#306,#153,.T.);
#370=EDGE_CURVE('',#307,#293,#154,.T.);
#371=EDGE_CURVE('',#307,#308,#155,.T.);
#372=EDGE_CURVE('',#308,#292,#156,.T.);
#373=EDGE_CURVE('',#309,#310,#157,.T.);
#374=EDGE_CURVE('',#311,#309,#158,.T.);
#375=EDGE_CURVE('',#312,#311,#159,.T.);
#376=EDGE_CURVE('',#310,#312,#160,.T.);
#377=EDGE_CURVE('',#313,#314,#161,.T.);
#378=EDGE_CURVE('',#315,#313,#162,.T.);
#379=EDGE_CURVE('',#316,#315,#163,.T.);
#380=EDGE_CURVE('',#314,#316,#164,.T.);
#381=EDGE_CURVE('',#313,#317,#165,.T.);
#382=EDGE_CURVE('',#318,#317,#166,.T.);
#383=EDGE_CURVE('',#315,#318,#167,.T.);
#384=EDGE_CURVE('',#314,#319,#168,.T.);
#385=EDGE_CURVE('',#317,#319,#169,.T.);
#386=EDGE_CURVE('',#309,#320,#170,.T.);
#387=EDGE_CURVE('',#321,#320,#171,.T.);
#388=EDGE_CURVE('',#311,#321,#172,.T.);
#389=EDGE_CURVE('',#310,#322,#173,.T.);
#390=EDGE_CURVE('',#320,#322,#174,.T.);
#391=EDGE_CURVE('',#308,#323,#175,.T.);
#392=EDGE_CURVE('',#323,#295,#176,.T.);
#393=EDGE_CURVE('',#324,#325,#177,.T.);
#394=EDGE_CURVE('',#326,#324,#178,.T.);
#395=EDGE_CURVE('',#327,#326,#179,.T.);
#396=EDGE_CURVE('',#325,#327,#180,.T.);
#397=EDGE_CURVE('',#324,#301,#181,.T.);
#398=EDGE_CURVE('',#326,#304,#182,.T.);
#399=EDGE_CURVE('',#325,#302,#183,.T.);
#400=EDGE_CURVE('',#323,#306,#184,.T.);
#401=EDGE_CURVE('',#327,#303,#185,.T.);
#402=EDGE_CURVE('',#328,#329,#186,.T.);
#403=EDGE_CURVE('',#329,#317,#15,.T.);
#404=EDGE_CURVE('',#319,#328,#16,.T.);
#405=EDGE_CURVE('',#329,#330,#187,.T.);
#406=EDGE_CURVE('',#318,#330,#17,.T.);
#407=EDGE_CURVE('',#331,#328,#188,.T.);
#408=EDGE_CURVE('',#319,#332,#189,.T.);
#409=EDGE_CURVE('',#332,#331,#18,.T.);
#410=EDGE_CURVE('',#330,#331,#190,.T.);
#411=EDGE_CURVE('',#332,#318,#191,.T.);
#412=EDGE_CURVE('',#316,#332,#192,.T.);
#413=EDGE_CURVE('',#298,#297,#193,.T.);
#414=EDGE_CURVE('',#333,#334,#194,.T.);
#415=EDGE_CURVE('',#335,#333,#195,.T.);
#416=EDGE_CURVE('',#336,#335,#196,.T.);
#417=EDGE_CURVE('',#334,#336,#197,.T.);
#418=EDGE_CURVE('',#334,#320,#19,.T.);
#419=EDGE_CURVE('',#322,#333,#20,.T.);
#420=EDGE_CURVE('',#321,#336,#21,.T.);
#421=EDGE_CURVE('',#322,#337,#198,.T.);
#422=EDGE_CURVE('',#337,#335,#22,.T.);
#423=EDGE_CURVE('',#337,#321,#199,.T.);
#424=EDGE_CURVE('',#312,#337,#200,.T.);
#425=EDGE_CURVE('',#284,#305,#201,.T.);
#426=ORIENTED_EDGE('',*,*,#338,.T.);
#427=ORIENTED_EDGE('',*,*,#339,.T.);
#428=ORIENTED_EDGE('',*,*,#340,.T.);
#429=ORIENTED_EDGE('',*,*,#341,.T.);
#430=ORIENTED_EDGE('',*,*,#338,.F.);
#431=ORIENTED_EDGE('',*,*,#342,.T.);
#432=ORIENTED_EDGE('',*,*,#343,.F.);
#433=ORIENTED_EDGE('',*,*,#344,.T.);
#434=ORIENTED_EDGE('',*,*,#345,.F.);
#435=ORIENTED_EDGE('',*,*,#346,.T.);
#436=ORIENTED_EDGE('',*,*,#347,.F.);
#437=ORIENTED_EDGE('',*,*,#348,.T.);
#438=ORIENTED_EDGE('',*,*,#349,.T.);
#439=ORIENTED_EDGE('',*,*,#350,.T.);
#440=ORIENTED_EDGE('',*,*,#351,.T.);
#441=ORIENTED_EDGE('',*,*,#352,.T.);
#442=ORIENTED_EDGE('',*,*,#341,.F.);
#443=ORIENTED_EDGE('',*,*,#353,.F.);
#444=ORIENTED_EDGE('',*,*,#354,.F.);
#445=ORIENTED_EDGE('',*,*,#342,.F.);
#446=ORIENTED_EDGE('',*,*,#343,.T.);
#447=ORIENTED_EDGE('',*,*,#354,.T.);
#448=ORIENTED_EDGE('',*,*,#355,.T.);
#449=ORIENTED_EDGE('',*,*,#356,.T.);
#450=ORIENTED_EDGE('',*,*,#345,.T.);
#451=ORIENTED_EDGE('',*,*,#357,.T.);
#452=ORIENTED_EDGE('',*,*,#358,.T.);
#453=ORIENTED_EDGE('',*,*,#359,.T.);
#454=ORIENTED_EDGE('',*,*,#359,.F.);
#455=ORIENTED_EDGE('',*,*,#360,.F.);
#456=ORIENTED_EDGE('',*,*,#361,.F.);
#457=ORIENTED_EDGE('',*,*,#346,.F.);
#458=ORIENTED_EDGE('',*,*,#362,.T.);
#459=ORIENTED_EDGE('',*,*,#363,.T.);
#460=ORIENTED_EDGE('',*,*,#364,.T.);
#461=ORIENTED_EDGE('',*,*,#365,.T.);
#462=ORIENTED_EDGE('',*,*,#347,.T.);
#463=ORIENTED_EDGE('',*,*,#361,.T.);
#464=ORIENTED_EDGE('',*,*,#366,.T.);
#465=ORIENTED_EDGE('',*,*,#367,.T.);
#466=ORIENTED_EDGE('',*,*,#368,.F.);
#467=ORIENTED_EDGE('',*,*,#369,.F.);
#468=ORIENTED_EDGE('',*,*,#350,.F.);
#469=ORIENTED_EDGE('',*,*,#370,.F.);
#470=ORIENTED_EDGE('',*,*,#371,.F.);
#471=ORIENTED_EDGE('',*,*,#370,.T.);
#472=ORIENTED_EDGE('',*,*,#349,.F.);
#473=ORIENTED_EDGE('',*,*,#372,.F.);
#474=ORIENTED_EDGE('',*,*,#373,.F.);
#475=ORIENTED_EDGE('',*,*,#374,.F.);
#476=ORIENTED_EDGE('',*,*,#375,.F.);
#477=ORIENTED_EDGE('',*,*,#376,.F.);
#478=ORIENTED_EDGE('',*,*,#377,.F.);
#479=ORIENTED_EDGE('',*,*,#378,.F.);
#480=ORIENTED_EDGE('',*,*,#379,.F.);
#481=ORIENTED_EDGE('',*,*,#380,.F.);
#482=ORIENTED_EDGE('',*,*,#378,.T.);
#483=ORIENTED_EDGE('',*,*,#381,.T.);
#484=ORIENTED_EDGE('',*,*,#382,.F.);
#485=ORIENTED_EDGE('',*,*,#383,.F.);
#486=ORIENTED_EDGE('',*,*,#377,.T.);
#487=ORIENTED_EDGE('',*,*,#384,.T.);
#488=ORIENTED_EDGE('',*,*,#385,.F.);
#489=ORIENTED_EDGE('',*,*,#381,.F.);
#490=ORIENTED_EDGE('',*,*,#374,.T.);
#491=ORIENTED_EDGE('',*,*,#386,.T.);
#492=ORIENTED_EDGE('',*,*,#387,.F.);
#493=ORIENTED_EDGE('',*,*,#388,.F.);
#494=ORIENTED_EDGE('',*,*,#373,.T.);
#495=ORIENTED_EDGE('',*,*,#389,.T.);
#496=ORIENTED_EDGE('',*,*,#390,.F.);
#497=ORIENTED_EDGE('',*,*,#386,.F.);
#498=ORIENTED_EDGE('',*,*,#391,.F.);
#499=ORIENTED_EDGE('',*,*,#372,.T.);
#500=ORIENTED_EDGE('',*,*,#352,.F.);
#501=ORIENTED_EDGE('',*,*,#392,.F.);
#502=ORIENTED_EDGE('',*,*,#393,.F.);
#503=ORIENTED_EDGE('',*,*,#394,.F.);
#504=ORIENTED_EDGE('',*,*,#395,.F.);
#505=ORIENTED_EDGE('',*,*,#396,.F.);
#506=ORIENTED_EDGE('',*,*,#394,.T.);
#507=ORIENTED_EDGE('',*,*,#397,.T.);
#508=ORIENTED_EDGE('',*,*,#365,.F.);
#509=ORIENTED_EDGE('',*,*,#398,.F.);
#510=ORIENTED_EDGE('',*,*,#393,.T.);
#511=ORIENTED_EDGE('',*,*,#399,.T.);
#512=ORIENTED_EDGE('',*,*,#362,.F.);
#513=ORIENTED_EDGE('',*,*,#397,.F.);
#514=ORIENTED_EDGE('',*,*,#400,.F.);
#515=ORIENTED_EDGE('',*,*,#392,.T.);
#516=ORIENTED_EDGE('',*,*,#351,.F.);
#517=ORIENTED_EDGE('',*,*,#369,.T.);
#518=ORIENTED_EDGE('',*,*,#396,.T.);
#519=ORIENTED_EDGE('',*,*,#401,.T.);
#520=ORIENTED_EDGE('',*,*,#363,.F.);
#521=ORIENTED_EDGE('',*,*,#399,.F.);
#522=ORIENTED_EDGE('',*,*,#395,.T.);
#523=ORIENTED_EDGE('',*,*,#398,.T.);
#524=ORIENTED_EDGE('',*,*,#364,.F.);
#525=ORIENTED_EDGE('',*,*,#401,.F.);
#526=ORIENTED_EDGE('',*,*,#402,.T.);
#527=ORIENTED_EDGE('',*,*,#403,.T.);
#528=ORIENTED_EDGE('',*,*,#385,.T.);
#529=ORIENTED_EDGE('',*,*,#404,.T.);
#530=ORIENTED_EDGE('',*,*,#382,.T.);
#531=ORIENTED_EDGE('',*,*,#403,.F.);
#532=ORIENTED_EDGE('',*,*,#405,.T.);
#533=ORIENTED_EDGE('',*,*,#406,.F.);
#534=ORIENTED_EDGE('',*,*,#407,.T.);
#535=ORIENTED_EDGE('',*,*,#404,.F.);
#536=ORIENTED_EDGE('',*,*,#408,.T.);
#537=ORIENTED_EDGE('',*,*,#409,.T.);
#538=ORIENTED_EDGE('',*,*,#410,.T.);
#539=ORIENTED_EDGE('',*,*,#409,.F.);
#540=ORIENTED_EDGE('',*,*,#411,.T.);
#541=ORIENTED_EDGE('',*,*,#406,.T.);
#542=ORIENTED_EDGE('',*,*,#380,.T.);
#543=ORIENTED_EDGE('',*,*,#412,.T.);
#544=ORIENTED_EDGE('',*,*,#408,.F.);
#545=ORIENTED_EDGE('',*,*,#384,.F.);
#546=ORIENTED_EDGE('',*,*,#356,.F.);
#547=ORIENTED_EDGE('',*,*,#413,.F.);
#548=ORIENTED_EDGE('',*,*,#357,.F.);
#549=ORIENTED_EDGE('',*,*,#344,.F.);
#550=ORIENTED_EDGE('',*,*,#414,.F.);
#551=ORIENTED_EDGE('',*,*,#415,.F.);
#552=ORIENTED_EDGE('',*,*,#416,.F.);
#553=ORIENTED_EDGE('',*,*,#417,.F.);
#554=ORIENTED_EDGE('',*,*,#402,.F.);
#555=ORIENTED_EDGE('',*,*,#407,.F.);
#556=ORIENTED_EDGE('',*,*,#410,.F.);
#557=ORIENTED_EDGE('',*,*,#405,.F.);
#558=ORIENTED_EDGE('',*,*,#414,.T.);
#559=ORIENTED_EDGE('',*,*,#418,.T.);
#560=ORIENTED_EDGE('',*,*,#390,.T.);
#561=ORIENTED_EDGE('',*,*,#419,.T.);
#562=ORIENTED_EDGE('',*,*,#387,.T.);
#563=ORIENTED_EDGE('',*,*,#418,.F.);
#564=ORIENTED_EDGE('',*,*,#417,.T.);
#565=ORIENTED_EDGE('',*,*,#420,.F.);
#566=ORIENTED_EDGE('',*,*,#415,.T.);
#567=ORIENTED_EDGE('',*,*,#419,.F.);
#568=ORIENTED_EDGE('',*,*,#421,.T.);
#569=ORIENTED_EDGE('',*,*,#422,.T.);
#570=ORIENTED_EDGE('',*,*,#416,.T.);
#571=ORIENTED_EDGE('',*,*,#422,.F.);
#572=ORIENTED_EDGE('',*,*,#423,.T.);
#573=ORIENTED_EDGE('',*,*,#420,.T.);
#574=ORIENTED_EDGE('',*,*,#376,.T.);
#575=ORIENTED_EDGE('',*,*,#424,.T.);
#576=ORIENTED_EDGE('',*,*,#421,.F.);
#577=ORIENTED_EDGE('',*,*,#389,.F.);
#578=ORIENTED_EDGE('',*,*,#375,.T.);
#579=ORIENTED_EDGE('',*,*,#388,.T.);
#580=ORIENTED_EDGE('',*,*,#423,.F.);
#581=ORIENTED_EDGE('',*,*,#424,.F.);
#582=ORIENTED_EDGE('',*,*,#379,.T.);
#583=ORIENTED_EDGE('',*,*,#383,.T.);
#584=ORIENTED_EDGE('',*,*,#411,.F.);
#585=ORIENTED_EDGE('',*,*,#412,.F.);
#586=ORIENTED_EDGE('',*,*,#339,.F.);
#587=ORIENTED_EDGE('',*,*,#348,.F.);
#588=ORIENTED_EDGE('',*,*,#367,.F.);
#589=ORIENTED_EDGE('',*,*,#425,.F.);
#590=ORIENTED_EDGE('',*,*,#391,.T.);
#591=ORIENTED_EDGE('',*,*,#400,.T.);
#592=ORIENTED_EDGE('',*,*,#368,.T.);
#593=ORIENTED_EDGE('',*,*,#371,.T.);
#594=ORIENTED_EDGE('',*,*,#340,.F.);
#595=ORIENTED_EDGE('',*,*,#425,.T.);
#596=ORIENTED_EDGE('',*,*,#366,.F.);
#597=ORIENTED_EDGE('',*,*,#360,.T.);
#598=ORIENTED_EDGE('',*,*,#358,.F.);
#599=ORIENTED_EDGE('',*,*,#413,.T.);
#600=ORIENTED_EDGE('',*,*,#355,.F.);
#601=ORIENTED_EDGE('',*,*,#353,.T.);
#602=CYLINDRICAL_SURFACE('',#663,3.);
#603=CYLINDRICAL_SURFACE('',#671,3.);
#604=CYLINDRICAL_SURFACE('',#673,3.);
#605=CYLINDRICAL_SURFACE('',#676,3.);
#606=CYLINDRICAL_SURFACE('',#690,1.);
#607=CYLINDRICAL_SURFACE('',#693,1.);
#608=CYLINDRICAL_SURFACE('',#695,1.);
#609=CYLINDRICAL_SURFACE('',#697,1.);
#610=CYLINDRICAL_SURFACE('',#700,1.5);
#611=CYLINDRICAL_SURFACE('',#703,1.5);
#612=CYLINDRICAL_SURFACE('',#705,1.5);
#613=CYLINDRICAL_SURFACE('',#707,1.5);
#614=ADVANCED_FACE('',(#53),#602,.T.);
#615=ADVANCED_FACE('',(#54,#23),#30,.T.);
#616=ADVANCED_FACE('',(#55),#31,.T.);
#617=ADVANCED_FACE('',(#56),#603,.T.);
#618=ADVANCED_FACE('',(#57),#604,.T.);
#619=ADVANCED_FACE('',(#58,#24),#32,.T.);
#620=ADVANCED_FACE('',(#59),#605,.T.);
#621=ADVANCED_FACE('',(#60),#33,.F.);
#622=ADVANCED_FACE('',(#61,#25,#26),#34,.F.);
#623=ADVANCED_FACE('',(#62),#35,.F.);
#624=ADVANCED_FACE('',(#63),#36,.F.);
#625=ADVANCED_FACE('',(#64),#37,.F.);
#626=ADVANCED_FACE('',(#65),#38,.F.);
#627=ADVANCED_FACE('',(#66,#27),#39,.F.);
#628=ADVANCED_FACE('',(#67),#40,.F.);
#629=ADVANCED_FACE('',(#68),#41,.F.);
#630=ADVANCED_FACE('',(#69),#42,.F.);
#631=ADVANCED_FACE('',(#70),#43,.F.);
#632=ADVANCED_FACE('',(#71),#44,.F.);
#633=ADVANCED_FACE('',(#72),#606,.T.);
#634=ADVANCED_FACE('',(#73),#607,.T.);
#635=ADVANCED_FACE('',(#74),#608,.T.);
#636=ADVANCED_FACE('',(#75),#609,.T.);
#637=ADVANCED_FACE('',(#76),#45,.F.);
#638=ADVANCED_FACE('',(#77,#28,#29),#46,.T.);
#639=ADVANCED_FACE('',(#78),#610,.T.);
#640=ADVANCED_FACE('',(#79),#611,.T.);
#641=ADVANCED_FACE('',(#80),#612,.T.);
#642=ADVANCED_FACE('',(#81),#613,.T.);
#643=ADVANCED_FACE('',(#82),#47,.F.);
#644=ADVANCED_FACE('',(#83),#48,.F.);
#645=ADVANCED_FACE('',(#84),#49,.F.);
#646=ADVANCED_FACE('',(#85),#50,.T.);
#647=ADVANCED_FACE('',(#86),#51,.T.);
#648=ADVANCED_FACE('',(#87),#52,.F.);
#649=CLOSED_SHELL('',(#614,#615,#616,#617,#618,#619,#620,#621,#622,#623,
#624,#625,#626,#627,#628,#629,#630,#631,#632,#633,#634,#635,#636,#637,#638,
#639,#640,#641,#642,#643,#644,#645,#646,#647,#648));
#650=DERIVED_UNIT_ELEMENT(#652,1.);
#651=DERIVED_UNIT_ELEMENT(#1075,-3.);
#652=(
MASS_UNIT()
NAMED_UNIT(*)
SI_UNIT(.KILO.,.GRAM.)
);
#653=DERIVED_UNIT((#650,#651));
#654=MEASURE_REPRESENTATION_ITEM('density measure',
POSITIVE_RATIO_MEASURE(7850.),#653);
#655=PROPERTY_DEFINITION_REPRESENTATION(#660,#657);
#656=PROPERTY_DEFINITION_REPRESENTATION(#661,#658);
#657=REPRESENTATION('material name',(#659),#1072);
#658=REPRESENTATION('density',(#654),#1072);
#659=DESCRIPTIVE_REPRESENTATION_ITEM('Steel','Steel');
#660=PROPERTY_DEFINITION('material property','material name',#1082);
#661=PROPERTY_DEFINITION('material property','density of part',#1082);
#662=AXIS2_PLACEMENT_3D('',#890,#714,#715);
#663=AXIS2_PLACEMENT_3D('',#891,#716,#717);
#664=AXIS2_PLACEMENT_3D('',#894,#718,#719);
#665=AXIS2_PLACEMENT_3D('',#898,#721,#722);
#666=AXIS2_PLACEMENT_3D('',#900,#724,#725);
#667=AXIS2_PLACEMENT_3D('',#904,#727,#728);
#668=AXIS2_PLACEMENT_3D('',#908,#730,#731);
#669=AXIS2_PLACEMENT_3D('',#912,#733,#734);
#670=AXIS2_PLACEMENT_3D('',#922,#740,#741);
#671=AXIS2_PLACEMENT_3D('',#926,#744,#745);
#672=AXIS2_PLACEMENT_3D('',#928,#746,#747);
#673=AXIS2_PLACEMENT_3D('',#930,#749,#750);
#674=AXIS2_PLACEMENT_3D('',#934,#752,#753);
#675=AXIS2_PLACEMENT_3D('',#936,#755,#756);
#676=AXIS2_PLACEMENT_3D('',#948,#763,#764);
#677=AXIS2_PLACEMENT_3D('',#950,#765,#766);
#678=AXIS2_PLACEMENT_3D('',#952,#768,#769);
#679=AXIS2_PLACEMENT_3D('',#958,#773,#774);
#680=AXIS2_PLACEMENT_3D('',#978,#785,#786);
#681=AXIS2_PLACEMENT_3D('',#984,#790,#791);
#682=AXIS2_PLACEMENT_3D('',#988,#794,#795);
#683=AXIS2_PLACEMENT_3D('',#994,#799,#800);
#684=AXIS2_PLACEMENT_3D('',#998,#803,#804);
#685=AXIS2_PLACEMENT_3D('',#1010,#811,#812);
#686=AXIS2_PLACEMENT_3D('',#1013,#815,#816);
#687=AXIS2_PLACEMENT_3D('',#1015,#818,#819);
#688=AXIS2_PLACEMENT_3D('',#1017,#821,#822);
#689=AXIS2_PLACEMENT_3D('',#1019,#824,#825);
#690=AXIS2_PLACEMENT_3D('',#1020,#826,#827);
#691=AXIS2_PLACEMENT_3D('',#1024,#829,#830);
#692=AXIS2_PLACEMENT_3D('',#1025,#831,#832);
#693=AXIS2_PLACEMENT_3D('',#1026,#833,#834);
#694=AXIS2_PLACEMENT_3D('',#1029,#836,#837);
#695=AXIS2_PLACEMENT_3D('',#1030,#838,#839);
#696=AXIS2_PLACEMENT_3D('',#1035,#842,#843);
#697=AXIS2_PLACEMENT_3D('',#1036,#844,#845);
#698=AXIS2_PLACEMENT_3D('',#1039,#848,#849);
#699=AXIS2_PLACEMENT_3D('',#1041,#851,#852);
#700=AXIS2_PLACEMENT_3D('',#1051,#858,#859);
#701=AXIS2_PLACEMENT_3D('',#1052,#860,#861);
#702=AXIS2_PLACEMENT_3D('',#1053,#862,#863);
#703=AXIS2_PLACEMENT_3D('',#1054,#864,#865);
#704=AXIS2_PLACEMENT_3D('',#1055,#866,#867);
#705=AXIS2_PLACEMENT_3D('',#1056,#868,#869);
#706=AXIS2_PLACEMENT_3D('',#1059,#871,#872);
#707=AXIS2_PLACEMENT_3D('',#1060,#873,#874);
#708=AXIS2_PLACEMENT_3D('',#1062,#876,#877);
#709=AXIS2_PLACEMENT_3D('',#1064,#879,#880);
#710=AXIS2_PLACEMENT_3D('',#1065,#881,#882);
#711=AXIS2_PLACEMENT_3D('',#1066,#883,#884);
#712=AXIS2_PLACEMENT_3D('',#1068,#886,#887);
#713=AXIS2_PLACEMENT_3D('',#1069,#888,#889);
#714=DIRECTION('axis',(0.,0.,1.));
#715=DIRECTION('refdir',(1.,0.,0.));
#716=DIRECTION('center_axis',(0.,0.,1.));
#717=DIRECTION('ref_axis',(-0.707106781186548,0.707106781186547,0.));
#718=DIRECTION('center_axis',(0.,0.,-1.));
#719=DIRECTION('ref_axis',(-0.707106781186548,0.707106781186547,0.));
#720=DIRECTION('',(0.,0.,-1.));
#721=DIRECTION('center_axis',(0.,0.,1.));
#722=DIRECTION('ref_axis',(-0.707106781186548,0.707106781186547,0.));
#723=DIRECTION('',(0.,0.,1.));
#724=DIRECTION('center_axis',(0.,0.,1.));
#725=DIRECTION('ref_axis',(1.,0.,0.));
#726=DIRECTION('',(0.,-1.,0.));
#727=DIRECTION('center_axis',(0.,0.,-1.));
#728=DIRECTION('ref_axis',(-0.707106781186547,-0.707106781186548,0.));
#729=DIRECTION('',(1.,0.,0.));
#730=DIRECTION('center_axis',(0.,0.,-1.));
#731=DIRECTION('ref_axis',(0.707106781186545,-0.70710678118655,0.));
#732=DIRECTION('',(0.,1.,0.));
#733=DIRECTION('center_axis',(0.,0.,-1.));
#734=DIRECTION('ref_axis',(0.707106781186549,0.707106781186546,0.));
#735=DIRECTION('',(-1.,0.,0.));
#736=DIRECTION('',(-1.,0.,0.));
#737=DIRECTION('',(0.,1.,0.));
#738=DIRECTION('',(1.,0.,0.));
#739=DIRECTION('',(0.,-1.,0.));
#740=DIRECTION('center_axis',(-1.,0.,0.));
#741=DIRECTION('ref_axis',(0.,-1.,0.));
#742=DIRECTION('',(0.,1.,0.));
#743=DIRECTION('',(0.,0.,-1.));
#744=DIRECTION('center_axis',(0.,0.,1.));
#745=DIRECTION('ref_axis',(-0.707106781186547,-0.707106781186548,0.));
#746=DIRECTION('center_axis',(0.,0.,1.));
#747=DIRECTION('ref_axis',(-0.707106781186547,-0.707106781186548,0.));
#748=DIRECTION('',(0.,0.,1.));
#749=DIRECTION('center_axis',(0.,0.,1.));
#750=DIRECTION('ref_axis',(0.707106781186545,-0.70710678118655,0.));
#751=DIRECTION('',(0.,0.,-1.));
#752=DIRECTION('center_axis',(0.,0.,1.));
#753=DIRECTION('ref_axis',(0.707106781186545,-0.70710678118655,0.));
#754=DIRECTION('',(0.,0.,1.));
#755=DIRECTION('center_axis',(1.,0.,0.));
#756=DIRECTION('ref_axis',(0.,1.,0.));
#757=DIRECTION('',(0.,-1.,0.));
#758=DIRECTION('',(0.,0.,-1.));
#759=DIRECTION('',(0.,0.,1.));
#760=DIRECTION('',(0.,1.,0.));
#761=DIRECTION('',(0.,0.,-1.));
#762=DIRECTION('',(0.,-1.,0.));
#763=DIRECTION('center_axis',(0.,0.,1.));
#764=DIRECTION('ref_axis',(0.707106781186549,0.707106781186546,0.));
#765=DIRECTION('center_axis',(0.,0.,1.));
#766=DIRECTION('ref_axis',(0.707106781186549,0.707106781186546,0.));
#767=DIRECTION('',(0.,0.,1.));
#768=DIRECTION('center_axis',(-1.,0.,0.));
#769=DIRECTION('ref_axis',(0.,0.,1.));
#770=DIRECTION('',(0.,-1.,0.));
#771=DIRECTION('',(0.,0.,-1.));
#772=DIRECTION('',(0.,0.,1.));
#773=DIRECTION('center_axis',(0.,-1.,0.));
#774=DIRECTION('ref_axis',(0.,0.,-1.));
#775=DIRECTION('',(1.,0.,0.));
#776=DIRECTION('',(0.,0.,1.));
#777=DIRECTION('',(0.,0.,-1.));
#778=DIRECTION('',(1.,0.,0.));
#779=DIRECTION('',(0.,0.,1.));
#780=DIRECTION('',(-1.,0.,0.));
#781=DIRECTION('',(0.,0.,1.));
#782=DIRECTION('',(-1.,0.,0.));
#783=DIRECTION('',(0.,0.,-1.));
#784=DIRECTION('',(1.,0.,0.));
#785=DIRECTION('center_axis',(0.,0.,-1.));
#786=DIRECTION('ref_axis',(1.,0.,0.));
#787=DIRECTION('',(0.,-1.,0.));
#788=DIRECTION('',(-1.,0.,0.));
#789=DIRECTION('',(0.,-1.,0.));
#790=DIRECTION('center_axis',(-1.,0.,0.));
#791=DIRECTION('ref_axis',(0.,0.,-1.));
#792=DIRECTION('',(0.,-1.,0.));
#793=DIRECTION('',(0.,0.,1.));
#794=DIRECTION('center_axis',(0.,0.,1.));
#795=DIRECTION('ref_axis',(-1.,0.,0.));
#796=DIRECTION('',(0.,-1.,0.));
#797=DIRECTION('',(1.,0.,0.));
#798=DIRECTION('',(0.,-1.,0.));
#799=DIRECTION('center_axis',(1.,0.,0.));
#800=DIRECTION('ref_axis',(0.,0.,1.));
#801=DIRECTION('',(0.,-1.,0.));
#802=DIRECTION('',(0.,0.,-1.));
#803=DIRECTION('center_axis',(1.,0.,0.));
#804=DIRECTION('ref_axis',(0.,0.,-1.));
#805=DIRECTION('',(0.,1.,0.));
#806=DIRECTION('',(0.,0.,1.));
#807=DIRECTION('',(0.,0.,1.));
#808=DIRECTION('',(0.,-1.,0.));
#809=DIRECTION('',(0.,0.,-1.));
#810=DIRECTION('',(0.,1.,0.));
#811=DIRECTION('center_axis',(0.,0.,-1.));
#812=DIRECTION('ref_axis',(0.,1.,0.));
#813=DIRECTION('',(1.,0.,0.));
#814=DIRECTION('',(1.,0.,0.));
#815=DIRECTION('center_axis',(0.,-1.,0.));
#816=DIRECTION('ref_axis',(0.,0.,-1.));
#817=DIRECTION('',(1.,0.,0.));
#818=DIRECTION('center_axis',(0.,1.,0.));
#819=DIRECTION('ref_axis',(0.,0.,1.));
#820=DIRECTION('',(-1.,0.,0.));
#821=DIRECTION('center_axis',(0.,0.,1.));
#822=DIRECTION('ref_axis',(0.,-1.,0.));
#823=DIRECTION('',(1.,0.,0.));
#824=DIRECTION('center_axis',(0.,1.,0.));
#825=DIRECTION('ref_axis',(0.,0.,1.));
#826=DIRECTION('center_axis',(0.,0.,1.));
#827=DIRECTION('ref_axis',(0.707106781186554,-0.707106781186541,0.));
#828=DIRECTION('',(0.,0.,-1.));
#829=DIRECTION('center_axis',(-0.707106781186547,0.,0.707106781186548));
#830=DIRECTION('ref_axis',(-0.707106781186548,0.,-0.707106781186547));
#831=DIRECTION('center_axis',(-0.707106781186547,0.,-0.707106781186548));
#832=DIRECTION('ref_axis',(0.707106781186548,0.,-0.707106781186547));
#833=DIRECTION('center_axis',(-1.,0.,0.));
#834=DIRECTION('ref_axis',(0.,-0.70710678118654,0.707106781186555));
#835=DIRECTION('',(1.,0.,0.));
#836=DIRECTION('center_axis',(0.707106781186549,0.,0.707106781186546));
#837=DIRECTION('ref_axis',(-0.707106781186546,0.,0.707106781186549));
#838=DIRECTION('center_axis',(1.,0.,0.));
#839=DIRECTION('ref_axis',(0.,-0.70710678118654,-0.707106781186555));
#840=DIRECTION('',(-1.,0.,0.));
#841=DIRECTION('',(1.,0.,0.));
#842=DIRECTION('center_axis',(-0.707106781186549,0.,0.707106781186546));
#843=DIRECTION('ref_axis',(-0.707106781186546,0.,-0.707106781186549));
#844=DIRECTION('center_axis',(0.,0.,-1.));
#845=DIRECTION('ref_axis',(-0.707106781186554,-0.707106781186541,0.));
#846=DIRECTION('',(0.,0.,1.));
#847=DIRECTION('',(0.,0.,-1.));
#848=DIRECTION('center_axis',(0.,0.,1.));
#849=DIRECTION('ref_axis',(-1.,0.,0.));
#850=DIRECTION('',(0.,-1.,0.));
#851=DIRECTION('center_axis',(0.,-1.,0.));
#852=DIRECTION('ref_axis',(1.,0.,0.));
#853=DIRECTION('',(-1.,0.,0.));
#854=DIRECTION('',(0.,0.,1.));
#855=DIRECTION('',(1.,0.,0.));
#856=DIRECTION('',(0.,0.,-1.));
#857=DIRECTION('',(-1.,0.,0.));
#858=DIRECTION('center_axis',(0.,0.,-1.));
#859=DIRECTION('ref_axis',(-0.70710678118655,-0.707106781186545,0.));
#860=DIRECTION('center_axis',(0.707106781186548,0.,-0.707106781186547));
#861=DIRECTION('ref_axis',(0.707106781186547,0.,0.707106781186548));
#862=DIRECTION('center_axis',(0.707106781186548,0.,0.707106781186547));
#863=DIRECTION('ref_axis',(-0.707106781186547,0.,0.707106781186548));
#864=DIRECTION('center_axis',(1.,0.,0.));
#865=DIRECTION('ref_axis',(0.,-0.707106781186544,-0.707106781186551));
#866=DIRECTION('center_axis',(-0.707106781186547,0.,-0.707106781186548));
#867=DIRECTION('ref_axis',(0.707106781186548,0.,-0.707106781186547));
#868=DIRECTION('center_axis',(-1.,0.,0.));
#869=DIRECTION('ref_axis',(0.,-0.707106781186544,0.707106781186551));
#870=DIRECTION('',(-1.,0.,0.));
#871=DIRECTION('center_axis',(0.707106781186547,0.,-0.707106781186548));
#872=DIRECTION('ref_axis',(0.707106781186548,0.,0.707106781186547));
#873=DIRECTION('center_axis',(0.,0.,1.));
#874=DIRECTION('ref_axis',(0.707106781186552,-0.707106781186543,0.));
#875=DIRECTION('',(0.,0.,1.));
#876=DIRECTION('center_axis',(0.,0.,-1.));
#877=DIRECTION('ref_axis',(1.,0.,0.));
#878=DIRECTION('',(0.,-1.,0.));
#879=DIRECTION('center_axis',(-1.,0.,0.));
#880=DIRECTION('ref_axis',(0.,0.,-1.));
#881=DIRECTION('center_axis',(1.,0.,0.));
#882=DIRECTION('ref_axis',(0.,0.,1.));
#883=DIRECTION('center_axis',(0.,1.,0.));
#884=DIRECTION('ref_axis',(-1.,0.,0.));
#885=DIRECTION('',(1.,0.,0.));
#886=DIRECTION('center_axis',(0.,0.,1.));
#887=DIRECTION('ref_axis',(1.,0.,0.));
#888=DIRECTION('center_axis',(0.,0.,1.));
#889=DIRECTION('ref_axis',(1.,0.,0.));
#890=CARTESIAN_POINT('',(0.,0.,0.));
#891=CARTESIAN_POINT('Origin',(3.,-3.,0.));
#892=CARTESIAN_POINT('',(0.,-3.,12.));
#893=CARTESIAN_POINT('',(3.00000000000001,0.,12.));
#894=CARTESIAN_POINT('Origin',(3.,-3.,12.));
#895=CARTESIAN_POINT('',(3.,0.,0.));
#896=CARTESIAN_POINT('',(3.,0.,0.));
#897=CARTESIAN_POINT('',(0.,-3.,0.));
#898=CARTESIAN_POINT('Origin',(3.,-3.,0.));
#899=CARTESIAN_POINT('',(0.,-3.,0.));
#900=CARTESIAN_POINT('Origin',(29.5,-23.,12.));
#901=CARTESIAN_POINT('',(0.,-43.,12.));
#902=CARTESIAN_POINT('',(0.,-46.,12.));
#903=CARTESIAN_POINT('',(3.,-46.,12.));
#904=CARTESIAN_POINT('Origin',(3.,-43.,12.));
#905=CARTESIAN_POINT('',(56.,-46.,12.));
#906=CARTESIAN_POINT('',(0.,-46.,12.));
#907=CARTESIAN_POINT('',(59.,-43.,12.));
#908=CARTESIAN_POINT('Origin',(56.,-43.,12.));
#909=CARTESIAN_POINT('',(59.,-3.,12.));
#910=CARTESIAN_POINT('',(59.,-46.,12.));
#911=CARTESIAN_POINT('',(56.,0.,12.));
#912=CARTESIAN_POINT('Origin',(56.,-3.,12.));
#913=CARTESIAN_POINT('',(59.,0.,12.));
#914=CARTESIAN_POINT('',(57.4,-44.4,12.));
#915=CARTESIAN_POINT('',(1.6,-44.4,12.));
#916=CARTESIAN_POINT('',(15.75,-44.4,12.));
#917=CARTESIAN_POINT('',(1.6,-1.6,12.));
#918=CARTESIAN_POINT('',(1.6,-33.5,12.));
#919=CARTESIAN_POINT('',(57.4,-1.6,12.));
#920=CARTESIAN_POINT('',(15.75,-1.6,12.));
#921=CARTESIAN_POINT('',(57.4,-33.5,12.));
#922=CARTESIAN_POINT('Origin',(0.,0.,0.));
#923=CARTESIAN_POINT('',(0.,-43.,0.));
#924=CARTESIAN_POINT('',(0.,-46.,0.));
#925=CARTESIAN_POINT('',(0.,-43.,0.));
#926=CARTESIAN_POINT('Origin',(3.,-43.,0.));
#927=CARTESIAN_POINT('',(3.,-46.,0.));
#928=CARTESIAN_POINT('Origin',(3.,-43.,0.));
#929=CARTESIAN_POINT('',(3.,-46.,0.));
#930=CARTESIAN_POINT('Origin',(56.,-43.,0.));
#931=CARTESIAN_POINT('',(56.,-46.,0.));
#932=CARTESIAN_POINT('',(56.,-46.,0.));
#933=CARTESIAN_POINT('',(59.,-43.,0.));
#934=CARTESIAN_POINT('Origin',(56.,-43.,0.));
#935=CARTESIAN_POINT('',(59.,-43.,0.));
#936=CARTESIAN_POINT('Origin',(59.,-46.,0.));
#937=CARTESIAN_POINT('',(59.,-3.,0.));
#938=CARTESIAN_POINT('',(59.,0.,0.));
#939=CARTESIAN_POINT('',(59.,-3.,0.));
#940=CARTESIAN_POINT('',(59.,-20.21,5.24400010430813));
#941=CARTESIAN_POINT('',(59.,-20.21,7.00000010430813));
#942=CARTESIAN_POINT('',(59.,-20.21,3.50000005215406));
#943=CARTESIAN_POINT('',(59.,-6.12,7.00000010430813));
#944=CARTESIAN_POINT('',(59.,-26.06,7.00000010430813));
#945=CARTESIAN_POINT('',(59.,-6.12,5.24400010430813));
#946=CARTESIAN_POINT('',(59.,-6.12,2.62200005215406));
#947=CARTESIAN_POINT('',(59.,-33.105,5.24400010430813));
#948=CARTESIAN_POINT('Origin',(56.,-3.,0.));
#949=CARTESIAN_POINT('',(56.,0.,0.));
#950=CARTESIAN_POINT('Origin',(56.,-3.,0.));
#951=CARTESIAN_POINT('',(56.,0.,0.));
#952=CARTESIAN_POINT('Origin',(1.6,-44.,2.));
#953=CARTESIAN_POINT('',(1.6,-1.6,2.));
#954=CARTESIAN_POINT('',(1.6,-44.4,2.));
#955=CARTESIAN_POINT('',(1.6,-44.,2.));
#956=CARTESIAN_POINT('',(1.6,-1.6,2.));
#957=CARTESIAN_POINT('',(1.6,-44.4,2.));
#958=CARTESIAN_POINT('Origin',(57.,-44.4,2.));
#959=CARTESIAN_POINT('',(57.4,-44.4,2.));
#960=CARTESIAN_POINT('',(43.25,-44.4,2.));
#961=CARTESIAN_POINT('',(57.4,-44.4,2.));
#962=CARTESIAN_POINT('',(21.01,-44.4,7.977));
#963=CARTESIAN_POINT('',(21.01,-44.4,4.777));
#964=CARTESIAN_POINT('',(21.01,-44.4,3.3885));
#965=CARTESIAN_POINT('',(12.06,-44.4,7.977));
#966=CARTESIAN_POINT('',(39.005,-44.4,7.977));
#967=CARTESIAN_POINT('',(12.06,-44.4,4.777));
#968=CARTESIAN_POINT('',(12.06,-44.4,4.9885));
#969=CARTESIAN_POINT('',(34.53,-44.4,4.777));
#970=CARTESIAN_POINT('',(35.1,-44.4,4.84000011920929));
#971=CARTESIAN_POINT('',(35.1,-44.4,8.00000011920929));
#972=CARTESIAN_POINT('',(35.1,-44.4,5.00000005960464));
#973=CARTESIAN_POINT('',(44.05,-44.4,4.84000011920929));
#974=CARTESIAN_POINT('',(46.05,-44.4,4.84000011920929));
#975=CARTESIAN_POINT('',(44.05,-44.4,8.00000011920929));
#976=CARTESIAN_POINT('',(44.05,-44.4,3.42000005960464));
#977=CARTESIAN_POINT('',(50.525,-44.4,8.00000011920929));
#978=CARTESIAN_POINT('Origin',(35.1,-44.,4.84000011920929));
#979=CARTESIAN_POINT('',(35.1,-45.,4.84000011920929));
#980=CARTESIAN_POINT('',(35.1,-44.,4.84000011920929));
#981=CARTESIAN_POINT('',(44.05,-45.,4.84000011920929));
#982=CARTESIAN_POINT('',(17.55,-45.,4.84000011920929));
#983=CARTESIAN_POINT('',(44.05,-44.,4.84000011920929));
#984=CARTESIAN_POINT('Origin',(35.1,-44.,8.00000011920929));
#985=CARTESIAN_POINT('',(35.1,-45.,8.00000011920929));
#986=CARTESIAN_POINT('',(35.1,-44.,8.00000011920929));
#987=CARTESIAN_POINT('',(35.1,-45.,4.00000005960464));
#988=CARTESIAN_POINT('Origin',(21.01,-44.,7.977));
#989=CARTESIAN_POINT('',(21.01,-44.5,7.977));
#990=CARTESIAN_POINT('',(21.01,-44.,7.977));
#991=CARTESIAN_POINT('',(12.06,-44.5,7.977));
#992=CARTESIAN_POINT('',(10.505,-44.5,7.977));
#993=CARTESIAN_POINT('',(12.06,-44.,7.977));
#994=CARTESIAN_POINT('Origin',(21.01,-44.,4.777));
#995=CARTESIAN_POINT('',(21.01,-44.5,4.777));
#996=CARTESIAN_POINT('',(21.01,-44.,4.777));
#997=CARTESIAN_POINT('',(21.01,-44.5,2.3885));
#998=CARTESIAN_POINT('Origin',(57.4,-2.,2.));
#999=CARTESIAN_POINT('',(57.4,-1.6,2.));
#1000=CARTESIAN_POINT('',(57.4,-12.5,2.));
#1001=CARTESIAN_POINT('',(57.4,-1.6,2.));
#1002=CARTESIAN_POINT('',(57.4,-20.21,5.24400010430813));
#1003=CARTESIAN_POINT('',(57.4,-20.21,7.00000010430813));
#1004=CARTESIAN_POINT('',(57.4,-20.21,4.50000005215406));
#1005=CARTESIAN_POINT('',(57.4,-6.12,5.24400010430813));
#1006=CARTESIAN_POINT('',(57.4,-11.105,5.24400010430813));
#1007=CARTESIAN_POINT('',(57.4,-6.12,7.00000010430813));
#1008=CARTESIAN_POINT('',(57.4,-6.12,3.62200005215406));
#1009=CARTESIAN_POINT('',(57.4,-4.06,7.00000010430813));
#1010=CARTESIAN_POINT('Origin',(57.,-20.21,5.24400010430813));
#1011=CARTESIAN_POINT('',(57.,-20.21,5.24400010430813));
#1012=CARTESIAN_POINT('',(57.,-6.12,5.24400010430813));
#1013=CARTESIAN_POINT('Origin',(57.,-20.21,7.00000010430813));
#1014=CARTESIAN_POINT('',(57.,-20.21,7.00000010430813));
#1015=CARTESIAN_POINT('Origin',(2.,-1.6,2.));
#1016=CARTESIAN_POINT('',(2.,-1.6,2.));
#1017=CARTESIAN_POINT('Origin',(57.,-6.12,7.00000010430813));
#1018=CARTESIAN_POINT('',(57.,-6.12,7.00000010430813));
#1019=CARTESIAN_POINT('Origin',(57.,-6.12,5.24400010430813));
#1020=CARTESIAN_POINT('Origin',(34.1,-45.,4.00000005960464));
#1021=CARTESIAN_POINT('',(34.1,-46.,9.00000011920929));
#1022=CARTESIAN_POINT('',(34.1,-46.,3.84000011920929));
#1023=CARTESIAN_POINT('',(34.1,-46.,4.00000005960464));
#1024=CARTESIAN_POINT('Origin',(34.1,-45.,3.84000011920929));
#1025=CARTESIAN_POINT('Origin',(34.1,-45.,9.00000011920929));
#1026=CARTESIAN_POINT('Origin',(17.55,-45.,3.84000011920929));
#1027=CARTESIAN_POINT('',(45.05,-46.,3.84000011920929));
#1028=CARTESIAN_POINT('',(17.55,-46.,3.84000011920929));
#1029=CARTESIAN_POINT('Origin',(45.05,-45.,3.84000011920929));
#1030=CARTESIAN_POINT('Origin',(22.025,-45.,9.00000011920929));
#1031=CARTESIAN_POINT('',(45.05,-46.,9.00000011920929));
#1032=CARTESIAN_POINT('',(22.025,-46.,9.00000011920929));
#1033=CARTESIAN_POINT('',(44.05,-45.,8.00000011920929));
#1034=CARTESIAN_POINT('',(22.025,-45.,8.00000011920929));
#1035=CARTESIAN_POINT('Origin',(45.05,-45.,9.00000011920929));
#1036=CARTESIAN_POINT('Origin',(45.05,-45.,2.42000005960464));
#1037=CARTESIAN_POINT('',(45.05,-46.,2.42000005960464));
#1038=CARTESIAN_POINT('',(44.05,-45.,2.42000005960464));
#1039=CARTESIAN_POINT('Origin',(44.05,-44.,8.00000011920929));
#1040=CARTESIAN_POINT('',(44.05,-44.,8.00000011920929));
#1041=CARTESIAN_POINT('Origin',(0.,-46.,0.));
#1042=CARTESIAN_POINT('',(59.,-46.,0.));
#1043=CARTESIAN_POINT('',(22.51,-46.,3.277));
#1044=CARTESIAN_POINT('',(22.51,-46.,9.477));
#1045=CARTESIAN_POINT('',(22.51,-46.,2.3885));
#1046=CARTESIAN_POINT('',(10.56,-46.,3.277));
#1047=CARTESIAN_POINT('',(6.03,-46.,3.277));
#1048=CARTESIAN_POINT('',(10.56,-46.,9.477));
#1049=CARTESIAN_POINT('',(10.56,-46.,3.9885));
#1050=CARTESIAN_POINT('',(10.505,-46.,9.477));
#1051=CARTESIAN_POINT('Origin',(22.51,-44.5,2.3885));
#1052=CARTESIAN_POINT('Origin',(22.51,-44.5,9.477));
#1053=CARTESIAN_POINT('Origin',(22.51,-44.5,3.277));
#1054=CARTESIAN_POINT('Origin',(10.505,-44.5,9.477));
#1055=CARTESIAN_POINT('Origin',(10.56,-44.5,9.477));
#1056=CARTESIAN_POINT('Origin',(6.03,-44.5,3.277));
#1057=CARTESIAN_POINT('',(12.06,-44.5,4.777));
#1058=CARTESIAN_POINT('',(6.03,-44.5,4.777));
#1059=CARTESIAN_POINT('Origin',(10.56,-44.5,3.277));
#1060=CARTESIAN_POINT('Origin',(10.56,-44.5,3.9885));
#1061=CARTESIAN_POINT('',(12.06,-44.5,3.9885));
#1062=CARTESIAN_POINT('Origin',(12.06,-44.,4.777));
#1063=CARTESIAN_POINT('',(12.06,-44.,4.777));
#1064=CARTESIAN_POINT('Origin',(12.06,-44.,7.977));
#1065=CARTESIAN_POINT('Origin',(44.05,-44.,4.84000011920929));
#1066=CARTESIAN_POINT('Origin',(59.,0.,0.));
#1067=CARTESIAN_POINT('',(0.,0.,0.));
#1068=CARTESIAN_POINT('Origin',(29.5,-23.,2.));
#1069=CARTESIAN_POINT('Origin',(29.5,-23.,0.));
#1070=UNCERTAINTY_MEASURE_WITH_UNIT(LENGTH_MEASURE(0.01),#1074,
'DISTANCE_ACCURACY_VALUE',
'Maximum model space distance between geometric entities at asserted c
onnectivities');
#1071=UNCERTAINTY_MEASURE_WITH_UNIT(LENGTH_MEASURE(0.01),#1074,
'DISTANCE_ACCURACY_VALUE',
'Maximum model space distance between geometric entities at asserted c
onnectivities');
#1072=(
GEOMETRIC_REPRESENTATION_CONTEXT(3)
GLOBAL_UNCERTAINTY_ASSIGNED_CONTEXT((#1070))
GLOBAL_UNIT_ASSIGNED_CONTEXT((#1074,#1076,#1077))
REPRESENTATION_CONTEXT('','3D')
);
#1073=(
GEOMETRIC_REPRESENTATION_CONTEXT(3)
GLOBAL_UNCERTAINTY_ASSIGNED_CONTEXT((#1071))
GLOBAL_UNIT_ASSIGNED_CONTEXT((#1074,#1076,#1077))
REPRESENTATION_CONTEXT('','3D')
);
#1074=(
LENGTH_UNIT()
NAMED_UNIT(*)
SI_UNIT(.MILLI.,.METRE.)
);
#1075=(
LENGTH_UNIT()
NAMED_UNIT(*)
SI_UNIT($,.METRE.)
);
#1076=(
NAMED_UNIT(*)
PLANE_ANGLE_UNIT()
SI_UNIT($,.RADIAN.)
);
#1077=(
NAMED_UNIT(*)
SI_UNIT($,.STERADIAN.)
SOLID_ANGLE_UNIT()
);
#1078=SHAPE_DEFINITION_REPRESENTATION(#1079,#1080);
#1079=PRODUCT_DEFINITION_SHAPE('',$,#1082);
#1080=SHAPE_REPRESENTATION('',(#662),#1072);
#1081=PRODUCT_DEFINITION_CONTEXT('part definition',#1086,'design');
#1082=PRODUCT_DEFINITION('Bottom case','Bottom case',#1083,#1081);
#1083=PRODUCT_DEFINITION_FORMATION('',$,#1088);
#1084=PRODUCT_RELATED_PRODUCT_CATEGORY('Bottom case','Bottom case',(#1088));
#1085=APPLICATION_PROTOCOL_DEFINITION('international standard',
'automotive_design',2009,#1086);
#1086=APPLICATION_CONTEXT(
'Core Data for Automotive Mechanical Design Process');
#1087=PRODUCT_CONTEXT('part definition',#1086,'mechanical');
#1088=PRODUCT('Bottom case','Bottom case',$,(#1087));
#1089=PRESENTATION_STYLE_ASSIGNMENT((#1090));
#1090=SURFACE_STYLE_USAGE(.BOTH.,#1091);
#1091=SURFACE_SIDE_STYLE('',(#1092));
#1092=SURFACE_STYLE_FILL_AREA(#1093);
#1093=FILL_AREA_STYLE('Steel - Satin',(#1094));
#1094=FILL_AREA_STYLE_COLOUR('Steel - Satin',#1095);
#1095=COLOUR_RGB('Steel - Satin',0.627450980392157,0.627450980392157,0.627450980392157);
ENDSEC;
END-ISO-10303-21;
