ISO-10303-21;
HEADER;
/* Generated by software containing ST-Developer
 * from STEP Tools, Inc. (www.steptools.com) 
 */

FILE_DESCRIPTION(
/* description */ (''),
/* implementation_level */ '2;1');

FILE_NAME(
/* name */ 'Top Case_.step',
/* time_stamp */ '2026-08-23T18:48:39+05:30',
/* author */ (''),
/* organization */ (''),
/* preprocessor_version */ 'ST-DEVELOPER v20.1',
/* originating_system */ 'Autodesk Translation Framework v15.8.0.0',
/* authorisation */ '');

FILE_SCHEMA (('AUTOMOTIVE_DESIGN { 1 0 10303 214 3 1 1 }'));
ENDSEC;

DATA;
#10=MECHANICAL_DESIGN_GEOMETRIC_PRESENTATION_REPRESENTATION('',(#13),#1648);
#11=SHAPE_REPRESENTATION_RELATIONSHIP('SRR','None',#1655,#12);
#12=ADVANCED_BREP_SHAPE_REPRESENTATION('',(#14),#1647);
#13=STYLED_ITEM('',(#1664),#14);
#14=MANIFOLD_SOLID_BREP('Body7',#978);
#15=SPHERICAL_SURFACE('',#1052,3.);
#16=SPHERICAL_SURFACE('',#1054,3.);
#17=SPHERICAL_SURFACE('',#1056,3.);
#18=SPHERICAL_SURFACE('',#1058,3.);
#19=ELLIPSE('',#1001,0.424264068711925,0.3);
#20=ELLIPSE('',#1002,0.424264068711932,0.3);
#21=ELLIPSE('',#1004,0.424264068711932,0.3);
#22=ELLIPSE('',#1006,0.424264068711925,0.3);
#23=ELLIPSE('',#1011,0.424264068711927,0.3);
#24=ELLIPSE('',#1012,0.42426406871193,0.3);
#25=ELLIPSE('',#1014,0.42426406871193,0.3);
#26=ELLIPSE('',#1016,0.424264068711927,0.3);
#27=ELLIPSE('',#1021,0.42426406871193,0.3);
#28=ELLIPSE('',#1022,0.424264068711927,0.3);
#29=ELLIPSE('',#1024,0.424264068711927,0.3);
#30=ELLIPSE('',#1026,0.42426406871193,0.3);
#31=ELLIPSE('',#1031,0.424264068711929,0.3);
#32=ELLIPSE('',#1032,0.424264068711929,0.3);
#33=ELLIPSE('',#1034,0.424264068711929,0.3);
#34=ELLIPSE('',#1036,0.424264068711928,0.3);
#35=CYLINDRICAL_SURFACE('',#998,0.810000000000004);
#36=CYLINDRICAL_SURFACE('',#1000,0.3);
#37=CYLINDRICAL_SURFACE('',#1003,0.3);
#38=CYLINDRICAL_SURFACE('',#1005,0.3);
#39=CYLINDRICAL_SURFACE('',#1007,0.3);
#40=CYLINDRICAL_SURFACE('',#1010,0.3);
#41=CYLINDRICAL_SURFACE('',#1013,0.3);
#42=CYLINDRICAL_SURFACE('',#1015,0.3);
#43=CYLINDRICAL_SURFACE('',#1017,0.3);
#44=CYLINDRICAL_SURFACE('',#1020,0.3);
#45=CYLINDRICAL_SURFACE('',#1023,0.3);
#46=CYLINDRICAL_SURFACE('',#1025,0.3);
#47=CYLINDRICAL_SURFACE('',#1027,0.3);
#48=CYLINDRICAL_SURFACE('',#1030,0.3);
#49=CYLINDRICAL_SURFACE('',#1033,0.3);
#50=CYLINDRICAL_SURFACE('',#1035,0.3);
#51=CYLINDRICAL_SURFACE('',#1037,0.3);
#52=CYLINDRICAL_SURFACE('',#1040,3.);
#53=CYLINDRICAL_SURFACE('',#1043,3.);
#54=CYLINDRICAL_SURFACE('',#1046,3.);
#55=CYLINDRICAL_SURFACE('',#1049,3.);
#56=CYLINDRICAL_SURFACE('',#1060,3.);
#57=CYLINDRICAL_SURFACE('',#1063,3.);
#58=CYLINDRICAL_SURFACE('',#1069,3.);
#59=CYLINDRICAL_SURFACE('',#1071,3.);
#60=FACE_BOUND('',#351,.T.);
#61=FACE_BOUND('',#352,.T.);
#62=FACE_BOUND('',#353,.T.);
#63=FACE_BOUND('',#354,.T.);
#64=FACE_BOUND('',#355,.T.);
#65=FACE_BOUND('',#394,.T.);
#66=FACE_BOUND('',#412,.T.);
#67=FACE_BOUND('',#413,.T.);
#68=FACE_BOUND('',#414,.T.);
#69=FACE_BOUND('',#415,.T.);
#70=FACE_BOUND('',#416,.T.);
#71=LINE('',#1385,#168);
#72=LINE('',#1387,#169);
#73=LINE('',#1389,#170);
#74=LINE('',#1390,#171);
#75=LINE('',#1393,#172);
#76=LINE('',#1395,#173);
#77=LINE('',#1397,#174);
#78=LINE('',#1398,#175);
#79=LINE('',#1401,#176);
#80=LINE('',#1403,#177);
#81=LINE('',#1405,#178);
#82=LINE('',#1406,#179);
#83=LINE('',#1409,#180);
#84=LINE('',#1411,#181);
#85=LINE('',#1413,#182);
#86=LINE('',#1414,#183);
#87=LINE('',#1417,#184);
#88=LINE('',#1419,#185);
#89=LINE('',#1421,#186);
#90=LINE('',#1422,#187);
#91=LINE('',#1425,#188);
#92=LINE('',#1431,#189);
#93=LINE('',#1436,#190);
#94=LINE('',#1440,#191);
#95=LINE('',#1442,#192);
#96=LINE('',#1445,#193);
#97=LINE('',#1447,#194);
#98=LINE('',#1448,#195);
#99=LINE('',#1451,#196);
#100=LINE('',#1452,#197);
#101=LINE('',#1457,#198);
#102=LINE('',#1462,#199);
#103=LINE('',#1466,#200);
#104=LINE('',#1468,#201);
#105=LINE('',#1471,#202);
#106=LINE('',#1473,#203);
#107=LINE('',#1474,#204);
#108=LINE('',#1477,#205);
#109=LINE('',#1478,#206);
#110=LINE('',#1483,#207);
#111=LINE('',#1488,#208);
#112=LINE('',#1492,#209);
#113=LINE('',#1494,#210);
#114=LINE('',#1497,#211);
#115=LINE('',#1499,#212);
#116=LINE('',#1500,#213);
#117=LINE('',#1503,#214);
#118=LINE('',#1504,#215);
#119=LINE('',#1509,#216);
#120=LINE('',#1514,#217);
#121=LINE('',#1518,#218);
#122=LINE('',#1520,#219);
#123=LINE('',#1523,#220);
#124=LINE('',#1525,#221);
#125=LINE('',#1526,#222);
#126=LINE('',#1529,#223);
#127=LINE('',#1530,#224);
#128=LINE('',#1535,#225);
#129=LINE('',#1541,#226);
#130=LINE('',#1548,#227);
#131=LINE('',#1553,#228);
#132=LINE('',#1565,#229);
#133=LINE('',#1568,#230);
#134=LINE('',#1571,#231);
#135=LINE('',#1572,#232);
#136=LINE('',#1575,#233);
#137=LINE('',#1579,#234);
#138=LINE('',#1580,#235);
#139=LINE('',#1585,#236);
#140=LINE('',#1588,#237);
#141=LINE('',#1591,#238);
#142=LINE('',#1593,#239);
#143=LINE('',#1595,#240);
#144=LINE('',#1596,#241);
#145=LINE('',#1598,#242);
#146=LINE('',#1600,#243);
#147=LINE('',#1602,#244);
#148=LINE('',#1607,#245);
#149=LINE('',#1608,#246);
#150=LINE('',#1609,#247);
#151=LINE('',#1612,#248);
#152=LINE('',#1613,#249);
#153=LINE('',#1616,#250);
#154=LINE('',#1617,#251);
#155=LINE('',#1619,#252);
#156=LINE('',#1622,#253);
#157=LINE('',#1623,#254);
#158=LINE('',#1625,#255);
#159=LINE('',#1628,#256);
#160=LINE('',#1629,#257);
#161=LINE('',#1631,#258);
#162=LINE('',#1634,#259);
#163=LINE('',#1635,#260);
#164=LINE('',#1637,#261);
#165=LINE('',#1640,#262);
#166=LINE('',#1641,#263);
#167=LINE('',#1643,#264);
#168=VECTOR('',#1100,10.);
#169=VECTOR('',#1101,10.);
#170=VECTOR('',#1102,10.);
#171=VECTOR('',#1103,10.);
#172=VECTOR('',#1104,10.);
#173=VECTOR('',#1105,10.);
#174=VECTOR('',#1106,10.);
#175=VECTOR('',#1107,10.);
#176=VECTOR('',#1108,10.);
#177=VECTOR('',#1109,10.);
#178=VECTOR('',#1110,10.);
#179=VECTOR('',#1111,10.);
#180=VECTOR('',#1112,10.);
#181=VECTOR('',#1113,10.);
#182=VECTOR('',#1114,10.);
#183=VECTOR('',#1115,10.);
#184=VECTOR('',#1116,10.);
#185=VECTOR('',#1117,10.);
#186=VECTOR('',#1118,10.);
#187=VECTOR('',#1119,10.);
#188=VECTOR('',#1122,0.810000000000004);
#189=VECTOR('',#1129,10.);
#190=VECTOR('',#1136,10.);
#191=VECTOR('',#1141,10.);
#192=VECTOR('',#1144,10.);
#193=VECTOR('',#1147,10.);
#194=VECTOR('',#1148,10.);
#195=VECTOR('',#1149,10.);
#196=VECTOR('',#1152,10.);
#197=VECTOR('',#1153,10.);
#198=VECTOR('',#1158,10.);
#199=VECTOR('',#1165,10.);
#200=VECTOR('',#1170,10.);
#201=VECTOR('',#1173,10.);
#202=VECTOR('',#1176,10.);
#203=VECTOR('',#1177,10.);
#204=VECTOR('',#1178,10.);
#205=VECTOR('',#1181,10.);
#206=VECTOR('',#1182,10.);
#207=VECTOR('',#1187,10.);
#208=VECTOR('',#1194,10.);
#209=VECTOR('',#1199,10.);
#210=VECTOR('',#1202,10.);
#211=VECTOR('',#1205,10.);
#212=VECTOR('',#1206,10.);
#213=VECTOR('',#1207,10.);
#214=VECTOR('',#1210,10.);
#215=VECTOR('',#1211,10.);
#216=VECTOR('',#1216,10.);
#217=VECTOR('',#1223,10.);
#218=VECTOR('',#1228,10.);
#219=VECTOR('',#1231,10.);
#220=VECTOR('',#1234,10.);
#221=VECTOR('',#1235,10.);
#222=VECTOR('',#1236,10.);
#223=VECTOR('',#1239,10.);
#224=VECTOR('',#1240,10.);
#225=VECTOR('',#1245,10.);
#226=VECTOR('',#1252,10.);
#227=VECTOR('',#1261,10.);
#228=VECTOR('',#1266,10.);
#229=VECTOR('',#1287,10.);
#230=VECTOR('',#1290,10.);
#231=VECTOR('',#1293,10.);
#232=VECTOR('',#1294,10.);
#233=VECTOR('',#1297,10.);
#234=VECTOR('',#1302,10.);
#235=VECTOR('',#1303,10.);
#236=VECTOR('',#1308,10.);
#237=VECTOR('',#1311,10.);
#238=VECTOR('',#1312,10.);
#239=VECTOR('',#1313,10.);
#240=VECTOR('',#1314,10.);
#241=VECTOR('',#1315,10.);
#242=VECTOR('',#1318,10.);
#243=VECTOR('',#1321,10.);
#244=VECTOR('',#1324,10.);
#245=VECTOR('',#1329,10.);
#246=VECTOR('',#1330,10.);
#247=VECTOR('',#1331,10.);
#248=VECTOR('',#1334,10.);
#249=VECTOR('',#1335,10.);
#250=VECTOR('',#1338,10.);
#251=VECTOR('',#1339,10.);
#252=VECTOR('',#1342,10.);
#253=VECTOR('',#1345,10.);
#254=VECTOR('',#1346,10.);
#255=VECTOR('',#1349,10.);
#256=VECTOR('',#1352,10.);
#257=VECTOR('',#1353,10.);
#258=VECTOR('',#1356,10.);
#259=VECTOR('',#1359,10.);
#260=VECTOR('',#1360,10.);
#261=VECTOR('',#1363,10.);
#262=VECTOR('',#1366,10.);
#263=VECTOR('',#1367,10.);
#264=VECTOR('',#1370,10.);
#265=PLANE('',#997);
#266=PLANE('',#1008);
#267=PLANE('',#1009);
#268=PLANE('',#1018);
#269=PLANE('',#1019);
#270=PLANE('',#1028);
#271=PLANE('',#1029);
#272=PLANE('',#1038);
#273=PLANE('',#1039);
#274=PLANE('',#1062);
#275=PLANE('',#1065);
#276=PLANE('',#1066);
#277=PLANE('',#1070);
#278=PLANE('',#1072);
#279=PLANE('',#1073);
#280=PLANE('',#1074);
#281=PLANE('',#1075);
#282=PLANE('',#1076);
#283=PLANE('',#1077);
#284=PLANE('',#1078);
#285=PLANE('',#1079);
#286=PLANE('',#1080);
#287=PLANE('',#1081);
#288=PLANE('',#1082);
#289=PLANE('',#1083);
#290=PLANE('',#1084);
#291=PLANE('',#1085);
#292=FACE_OUTER_BOUND('',#349,.T.);
#293=FACE_OUTER_BOUND('',#350,.T.);
#294=FACE_OUTER_BOUND('',#356,.T.);
#295=FACE_OUTER_BOUND('',#357,.T.);
#296=FACE_OUTER_BOUND('',#358,.T.);
#297=FACE_OUTER_BOUND('',#359,.T.);
#298=FACE_OUTER_BOUND('',#360,.T.);
#299=FACE_OUTER_BOUND('',#361,.T.);
#300=FACE_OUTER_BOUND('',#362,.T.);
#301=FACE_OUTER_BOUND('',#363,.T.);
#302=FACE_OUTER_BOUND('',#364,.T.);
#303=FACE_OUTER_BOUND('',#365,.T.);
#304=FACE_OUTER_BOUND('',#366,.T.);
#305=FACE_OUTER_BOUND('',#367,.T.);
#306=FACE_OUTER_BOUND('',#368,.T.);
#307=FACE_OUTER_BOUND('',#369,.T.);
#308=FACE_OUTER_BOUND('',#370,.T.);
#309=FACE_OUTER_BOUND('',#371,.T.);
#310=FACE_OUTER_BOUND('',#372,.T.);
#311=FACE_OUTER_BOUND('',#373,.T.);
#312=FACE_OUTER_BOUND('',#374,.T.);
#313=FACE_OUTER_BOUND('',#375,.T.);
#314=FACE_OUTER_BOUND('',#376,.T.);
#315=FACE_OUTER_BOUND('',#377,.T.);
#316=FACE_OUTER_BOUND('',#378,.T.);
#317=FACE_OUTER_BOUND('',#379,.T.);
#318=FACE_OUTER_BOUND('',#380,.T.);
#319=FACE_OUTER_BOUND('',#381,.T.);
#320=FACE_OUTER_BOUND('',#382,.T.);
#321=FACE_OUTER_BOUND('',#383,.T.);
#322=FACE_OUTER_BOUND('',#384,.T.);
#323=FACE_OUTER_BOUND('',#385,.T.);
#324=FACE_OUTER_BOUND('',#386,.T.);
#325=FACE_OUTER_BOUND('',#387,.T.);
#326=FACE_OUTER_BOUND('',#388,.T.);
#327=FACE_OUTER_BOUND('',#389,.T.);
#328=FACE_OUTER_BOUND('',#390,.T.);
#329=FACE_OUTER_BOUND('',#391,.T.);
#330=FACE_OUTER_BOUND('',#392,.T.);
#331=FACE_OUTER_BOUND('',#393,.T.);
#332=FACE_OUTER_BOUND('',#395,.T.);
#333=FACE_OUTER_BOUND('',#396,.T.);
#334=FACE_OUTER_BOUND('',#397,.T.);
#335=FACE_OUTER_BOUND('',#398,.T.);
#336=FACE_OUTER_BOUND('',#399,.T.);
#337=FACE_OUTER_BOUND('',#400,.T.);
#338=FACE_OUTER_BOUND('',#401,.T.);
#339=FACE_OUTER_BOUND('',#402,.T.);
#340=FACE_OUTER_BOUND('',#403,.T.);
#341=FACE_OUTER_BOUND('',#404,.T.);
#342=FACE_OUTER_BOUND('',#405,.T.);
#343=FACE_OUTER_BOUND('',#406,.T.);
#344=FACE_OUTER_BOUND('',#407,.T.);
#345=FACE_OUTER_BOUND('',#408,.T.);
#346=FACE_OUTER_BOUND('',#409,.T.);
#347=FACE_OUTER_BOUND('',#410,.T.);
#348=FACE_OUTER_BOUND('',#411,.T.);
#349=EDGE_LOOP('',(#652,#653,#654,#655,#656));
#350=EDGE_LOOP('',(#657,#658,#659,#660));
#351=EDGE_LOOP('',(#661,#662,#663,#664));
#352=EDGE_LOOP('',(#665,#666,#667,#668));
#353=EDGE_LOOP('',(#669,#670,#671,#672));
#354=EDGE_LOOP('',(#673,#674,#675,#676));
#355=EDGE_LOOP('',(#677));
#356=EDGE_LOOP('',(#678,#679,#680,#681,#682));
#357=EDGE_LOOP('',(#683,#684,#685,#686));
#358=EDGE_LOOP('',(#687,#688,#689,#690));
#359=EDGE_LOOP('',(#691,#692,#693,#694));
#360=EDGE_LOOP('',(#695,#696,#697,#698));
#361=EDGE_LOOP('',(#699,#700,#701,#702));
#362=EDGE_LOOP('',(#703,#704,#705,#706));
#363=EDGE_LOOP('',(#707,#708,#709,#710));
#364=EDGE_LOOP('',(#711,#712,#713,#714));
#365=EDGE_LOOP('',(#715,#716,#717,#718));
#366=EDGE_LOOP('',(#719,#720,#721,#722));
#367=EDGE_LOOP('',(#723,#724,#725,#726));
#368=EDGE_LOOP('',(#727,#728,#729,#730));
#369=EDGE_LOOP('',(#731,#732,#733,#734));
#370=EDGE_LOOP('',(#735,#736,#737,#738));
#371=EDGE_LOOP('',(#739,#740,#741,#742));
#372=EDGE_LOOP('',(#743,#744,#745,#746));
#373=EDGE_LOOP('',(#747,#748,#749,#750));
#374=EDGE_LOOP('',(#751,#752,#753,#754));
#375=EDGE_LOOP('',(#755,#756,#757,#758));
#376=EDGE_LOOP('',(#759,#760,#761,#762));
#377=EDGE_LOOP('',(#763,#764,#765,#766));
#378=EDGE_LOOP('',(#767,#768,#769,#770));
#379=EDGE_LOOP('',(#771,#772,#773,#774));
#380=EDGE_LOOP('',(#775,#776,#777,#778));
#381=EDGE_LOOP('',(#779,#780,#781,#782));
#382=EDGE_LOOP('',(#783,#784,#785,#786));
#383=EDGE_LOOP('',(#787,#788,#789,#790));
#384=EDGE_LOOP('',(#791,#792,#793,#794));
#385=EDGE_LOOP('',(#795,#796,#797));
#386=EDGE_LOOP('',(#798,#799,#800));
#387=EDGE_LOOP('',(#801,#802,#803));
#388=EDGE_LOOP('',(#804,#805,#806));
#389=EDGE_LOOP('',(#807,#808,#809,#810));
#390=EDGE_LOOP('',(#811,#812,#813,#814));
#391=EDGE_LOOP('',(#815,#816,#817,#818));
#392=EDGE_LOOP('',(#819,#820,#821,#822));
#393=EDGE_LOOP('',(#823,#824,#825,#826,#827,#828,#829,#830));
#394=EDGE_LOOP('',(#831,#832,#833,#834));
#395=EDGE_LOOP('',(#835,#836,#837,#838));
#396=EDGE_LOOP('',(#839,#840,#841,#842));
#397=EDGE_LOOP('',(#843,#844,#845,#846));
#398=EDGE_LOOP('',(#847,#848,#849,#850));
#399=EDGE_LOOP('',(#851,#852,#853,#854));
#400=EDGE_LOOP('',(#855,#856,#857,#858));
#401=EDGE_LOOP('',(#859,#860,#861,#862));
#402=EDGE_LOOP('',(#863,#864,#865,#866));
#403=EDGE_LOOP('',(#867,#868,#869,#870));
#404=EDGE_LOOP('',(#871,#872,#873,#874));
#405=EDGE_LOOP('',(#875,#876,#877,#878));
#406=EDGE_LOOP('',(#879,#880,#881,#882));
#407=EDGE_LOOP('',(#883,#884,#885,#886));
#408=EDGE_LOOP('',(#887,#888,#889,#890));
#409=EDGE_LOOP('',(#891,#892,#893,#894));
#410=EDGE_LOOP('',(#895,#896,#897,#898));
#411=EDGE_LOOP('',(#899,#900,#901,#902));
#412=EDGE_LOOP('',(#903,#904,#905,#906));
#413=EDGE_LOOP('',(#907));
#414=EDGE_LOOP('',(#908,#909,#910,#911));
#415=EDGE_LOOP('',(#912,#913,#914,#915));
#416=EDGE_LOOP('',(#916,#917,#918,#919));
#417=CIRCLE('',#993,1.31);
#418=CIRCLE('',#994,0.5);
#419=CIRCLE('',#995,0.810000000000004);
#420=CIRCLE('',#996,0.810000000000004);
#421=CIRCLE('',#999,0.810000000000004);
#422=CIRCLE('',#1041,3.);
#423=CIRCLE('',#1042,3.);
#424=CIRCLE('',#1044,3.);
#425=CIRCLE('',#1045,3.);
#426=CIRCLE('',#1047,3.);
#427=CIRCLE('',#1048,3.);
#428=CIRCLE('',#1050,3.);
#429=CIRCLE('',#1051,3.);
#430=CIRCLE('',#1053,3.);
#431=CIRCLE('',#1055,3.);
#432=CIRCLE('',#1057,3.);
#433=CIRCLE('',#1059,3.);
#434=CIRCLE('',#1061,3.);
#435=CIRCLE('',#1064,3.);
#436=CIRCLE('',#1067,3.);
#437=CIRCLE('',#1068,3.);
#438=VERTEX_POINT('',#1375);
#439=VERTEX_POINT('',#1377);
#440=VERTEX_POINT('',#1379);
#441=VERTEX_POINT('',#1383);
#442=VERTEX_POINT('',#1384);
#443=VERTEX_POINT('',#1386);
#444=VERTEX_POINT('',#1388);
#445=VERTEX_POINT('',#1391);
#446=VERTEX_POINT('',#1392);
#447=VERTEX_POINT('',#1394);
#448=VERTEX_POINT('',#1396);
#449=VERTEX_POINT('',#1399);
#450=VERTEX_POINT('',#1400);
#451=VERTEX_POINT('',#1402);
#452=VERTEX_POINT('',#1404);
#453=VERTEX_POINT('',#1407);
#454=VERTEX_POINT('',#1408);
#455=VERTEX_POINT('',#1410);
#456=VERTEX_POINT('',#1412);
#457=VERTEX_POINT('',#1415);
#458=VERTEX_POINT('',#1416);
#459=VERTEX_POINT('',#1418);
#460=VERTEX_POINT('',#1420);
#461=VERTEX_POINT('',#1424);
#462=VERTEX_POINT('',#1428);
#463=VERTEX_POINT('',#1430);
#464=VERTEX_POINT('',#1434);
#465=VERTEX_POINT('',#1438);
#466=VERTEX_POINT('',#1444);
#467=VERTEX_POINT('',#1446);
#468=VERTEX_POINT('',#1450);
#469=VERTEX_POINT('',#1454);
#470=VERTEX_POINT('',#1456);
#471=VERTEX_POINT('',#1460);
#472=VERTEX_POINT('',#1464);
#473=VERTEX_POINT('',#1470);
#474=VERTEX_POINT('',#1472);
#475=VERTEX_POINT('',#1476);
#476=VERTEX_POINT('',#1480);
#477=VERTEX_POINT('',#1482);
#478=VERTEX_POINT('',#1486);
#479=VERTEX_POINT('',#1490);
#480=VERTEX_POINT('',#1496);
#481=VERTEX_POINT('',#1498);
#482=VERTEX_POINT('',#1502);
#483=VERTEX_POINT('',#1506);
#484=VERTEX_POINT('',#1508);
#485=VERTEX_POINT('',#1512);
#486=VERTEX_POINT('',#1516);
#487=VERTEX_POINT('',#1522);
#488=VERTEX_POINT('',#1524);
#489=VERTEX_POINT('',#1528);
#490=VERTEX_POINT('',#1532);
#491=VERTEX_POINT('',#1534);
#492=VERTEX_POINT('',#1538);
#493=VERTEX_POINT('',#1540);
#494=VERTEX_POINT('',#1544);
#495=VERTEX_POINT('',#1546);
#496=VERTEX_POINT('',#1550);
#497=VERTEX_POINT('',#1552);
#498=VERTEX_POINT('',#1564);
#499=VERTEX_POINT('',#1566);
#500=VERTEX_POINT('',#1570);
#501=VERTEX_POINT('',#1574);
#502=VERTEX_POINT('',#1578);
#503=VERTEX_POINT('',#1582);
#504=VERTEX_POINT('',#1584);
#505=VERTEX_POINT('',#1586);
#506=VERTEX_POINT('',#1589);
#507=VERTEX_POINT('',#1590);
#508=VERTEX_POINT('',#1592);
#509=VERTEX_POINT('',#1594);
#510=VERTEX_POINT('',#1605);
#511=VERTEX_POINT('',#1606);
#512=VERTEX_POINT('',#1611);
#513=VERTEX_POINT('',#1615);
#514=VERTEX_POINT('',#1621);
#515=VERTEX_POINT('',#1627);
#516=VERTEX_POINT('',#1633);
#517=VERTEX_POINT('',#1639);
#518=EDGE_CURVE('',#438,#438,#417,.T.);
#519=EDGE_CURVE('',#438,#439,#418,.T.);
#520=EDGE_CURVE('',#439,#440,#419,.T.);
#521=EDGE_CURVE('',#440,#439,#420,.T.);
#522=EDGE_CURVE('',#441,#442,#71,.T.);
#523=EDGE_CURVE('',#443,#441,#72,.T.);
#524=EDGE_CURVE('',#444,#443,#73,.T.);
#525=EDGE_CURVE('',#442,#444,#74,.T.);
#526=EDGE_CURVE('',#445,#446,#75,.T.);
#527=EDGE_CURVE('',#447,#445,#76,.T.);
#528=EDGE_CURVE('',#448,#447,#77,.T.);
#529=EDGE_CURVE('',#446,#448,#78,.T.);
#530=EDGE_CURVE('',#449,#450,#79,.T.);
#531=EDGE_CURVE('',#451,#449,#80,.T.);
#532=EDGE_CURVE('',#452,#451,#81,.T.);
#533=EDGE_CURVE('',#450,#452,#82,.T.);
#534=EDGE_CURVE('',#453,#454,#83,.T.);
#535=EDGE_CURVE('',#455,#453,#84,.T.);
#536=EDGE_CURVE('',#456,#455,#85,.T.);
#537=EDGE_CURVE('',#454,#456,#86,.T.);
#538=EDGE_CURVE('',#457,#458,#87,.T.);
#539=EDGE_CURVE('',#459,#457,#88,.T.);
#540=EDGE_CURVE('',#460,#459,#89,.T.);
#541=EDGE_CURVE('',#458,#460,#90,.T.);
#542=EDGE_CURVE('',#440,#461,#91,.T.);
#543=EDGE_CURVE('',#461,#461,#421,.T.);
#544=EDGE_CURVE('',#446,#462,#19,.T.);
#545=EDGE_CURVE('',#462,#463,#92,.T.);
#546=EDGE_CURVE('',#445,#463,#20,.T.);
#547=EDGE_CURVE('',#448,#464,#21,.T.);
#548=EDGE_CURVE('',#464,#462,#93,.T.);
#549=EDGE_CURVE('',#447,#465,#22,.T.);
#550=EDGE_CURVE('',#465,#464,#94,.T.);
#551=EDGE_CURVE('',#463,#465,#95,.T.);
#552=EDGE_CURVE('',#466,#463,#96,.T.);
#553=EDGE_CURVE('',#466,#467,#97,.T.);
#554=EDGE_CURVE('',#467,#465,#98,.T.);
#555=EDGE_CURVE('',#468,#462,#99,.T.);
#556=EDGE_CURVE('',#468,#466,#100,.T.);
#557=EDGE_CURVE('',#458,#469,#23,.T.);
#558=EDGE_CURVE('',#469,#470,#101,.T.);
#559=EDGE_CURVE('',#457,#470,#24,.T.);
#560=EDGE_CURVE('',#460,#471,#25,.T.);
#561=EDGE_CURVE('',#471,#469,#102,.T.);
#562=EDGE_CURVE('',#459,#472,#26,.T.);
#563=EDGE_CURVE('',#472,#471,#103,.T.);
#564=EDGE_CURVE('',#470,#472,#104,.T.);
#565=EDGE_CURVE('',#473,#470,#105,.T.);
#566=EDGE_CURVE('',#473,#474,#106,.T.);
#567=EDGE_CURVE('',#474,#472,#107,.T.);
#568=EDGE_CURVE('',#475,#469,#108,.T.);
#569=EDGE_CURVE('',#475,#473,#109,.T.);
#570=EDGE_CURVE('',#450,#476,#27,.T.);
#571=EDGE_CURVE('',#476,#477,#110,.T.);
#572=EDGE_CURVE('',#449,#477,#28,.T.);
#573=EDGE_CURVE('',#452,#478,#29,.T.);
#574=EDGE_CURVE('',#478,#476,#111,.T.);
#575=EDGE_CURVE('',#451,#479,#30,.T.);
#576=EDGE_CURVE('',#479,#478,#112,.T.);
#577=EDGE_CURVE('',#477,#479,#113,.T.);
#578=EDGE_CURVE('',#480,#477,#114,.T.);
#579=EDGE_CURVE('',#480,#481,#115,.T.);
#580=EDGE_CURVE('',#481,#479,#116,.T.);
#581=EDGE_CURVE('',#482,#476,#117,.T.);
#582=EDGE_CURVE('',#482,#480,#118,.T.);
#583=EDGE_CURVE('',#454,#483,#31,.T.);
#584=EDGE_CURVE('',#483,#484,#119,.T.);
#585=EDGE_CURVE('',#453,#484,#32,.T.);
#586=EDGE_CURVE('',#456,#485,#33,.T.);
#587=EDGE_CURVE('',#485,#483,#120,.T.);
#588=EDGE_CURVE('',#455,#486,#34,.T.);
#589=EDGE_CURVE('',#486,#485,#121,.T.);
#590=EDGE_CURVE('',#484,#486,#122,.T.);
#591=EDGE_CURVE('',#487,#484,#123,.T.);
#592=EDGE_CURVE('',#487,#488,#124,.T.);
#593=EDGE_CURVE('',#488,#486,#125,.T.);
#594=EDGE_CURVE('',#489,#483,#126,.T.);
#595=EDGE_CURVE('',#489,#487,#127,.T.);
#596=EDGE_CURVE('',#442,#490,#422,.T.);
#597=EDGE_CURVE('',#490,#491,#128,.T.);
#598=EDGE_CURVE('',#491,#441,#423,.T.);
#599=EDGE_CURVE('',#444,#492,#424,.T.);
#600=EDGE_CURVE('',#492,#493,#129,.T.);
#601=EDGE_CURVE('',#493,#442,#425,.T.);
#602=EDGE_CURVE('',#494,#444,#426,.T.);
#603=EDGE_CURVE('',#443,#495,#427,.T.);
#604=EDGE_CURVE('',#495,#494,#130,.T.);
#605=EDGE_CURVE('',#441,#496,#428,.T.);
#606=EDGE_CURVE('',#496,#497,#131,.T.);
#607=EDGE_CURVE('',#497,#443,#429,.T.);
#608=EDGE_CURVE('',#497,#495,#430,.T.);
#609=EDGE_CURVE('',#494,#492,#431,.T.);
#610=EDGE_CURVE('',#493,#490,#432,.T.);
#611=EDGE_CURVE('',#491,#496,#433,.T.);
#612=EDGE_CURVE('',#494,#498,#132,.T.);
#613=EDGE_CURVE('',#498,#499,#434,.T.);
#614=EDGE_CURVE('',#499,#492,#133,.T.);
#615=EDGE_CURVE('',#500,#495,#134,.T.);
#616=EDGE_CURVE('',#498,#500,#135,.T.);
#617=EDGE_CURVE('',#497,#501,#136,.T.);
#618=EDGE_CURVE('',#501,#500,#435,.T.);
#619=EDGE_CURVE('',#502,#496,#137,.T.);
#620=EDGE_CURVE('',#501,#502,#138,.T.);
#621=EDGE_CURVE('',#503,#502,#436,.T.);
#622=EDGE_CURVE('',#503,#504,#139,.T.);
#623=EDGE_CURVE('',#505,#504,#437,.T.);
#624=EDGE_CURVE('',#505,#499,#140,.T.);
#625=EDGE_CURVE('',#506,#507,#141,.T.);
#626=EDGE_CURVE('',#507,#508,#142,.T.);
#627=EDGE_CURVE('',#508,#509,#143,.T.);
#628=EDGE_CURVE('',#509,#506,#144,.T.);
#629=EDGE_CURVE('',#491,#503,#145,.T.);
#630=EDGE_CURVE('',#493,#505,#146,.T.);
#631=EDGE_CURVE('',#504,#490,#147,.T.);
#632=EDGE_CURVE('',#510,#511,#148,.T.);
#633=EDGE_CURVE('',#510,#506,#149,.T.);
#634=EDGE_CURVE('',#511,#509,#150,.T.);
#635=EDGE_CURVE('',#511,#512,#151,.T.);
#636=EDGE_CURVE('',#512,#508,#152,.T.);
#637=EDGE_CURVE('',#512,#513,#153,.T.);
#638=EDGE_CURVE('',#513,#507,#154,.T.);
#639=EDGE_CURVE('',#513,#510,#155,.T.);
#640=EDGE_CURVE('',#514,#464,#156,.T.);
#641=EDGE_CURVE('',#514,#468,#157,.T.);
#642=EDGE_CURVE('',#467,#514,#158,.T.);
#643=EDGE_CURVE('',#515,#471,#159,.T.);
#644=EDGE_CURVE('',#515,#475,#160,.T.);
#645=EDGE_CURVE('',#474,#515,#161,.T.);
#646=EDGE_CURVE('',#516,#478,#162,.T.);
#647=EDGE_CURVE('',#516,#482,#163,.T.);
#648=EDGE_CURVE('',#481,#516,#164,.T.);
#649=EDGE_CURVE('',#517,#485,#165,.T.);
#650=EDGE_CURVE('',#517,#489,#166,.T.);
#651=EDGE_CURVE('',#488,#517,#167,.T.);
#652=ORIENTED_EDGE('',*,*,#518,.T.);
#653=ORIENTED_EDGE('',*,*,#519,.T.);
#654=ORIENTED_EDGE('',*,*,#520,.T.);
#655=ORIENTED_EDGE('',*,*,#521,.T.);
#656=ORIENTED_EDGE('',*,*,#519,.F.);
#657=ORIENTED_EDGE('',*,*,#522,.F.);
#658=ORIENTED_EDGE('',*,*,#523,.F.);
#659=ORIENTED_EDGE('',*,*,#524,.F.);
#660=ORIENTED_EDGE('',*,*,#525,.F.);
#661=ORIENTED_EDGE('',*,*,#526,.F.);
#662=ORIENTED_EDGE('',*,*,#527,.F.);
#663=ORIENTED_EDGE('',*,*,#528,.F.);
#664=ORIENTED_EDGE('',*,*,#529,.F.);
#665=ORIENTED_EDGE('',*,*,#530,.F.);
#666=ORIENTED_EDGE('',*,*,#531,.F.);
#667=ORIENTED_EDGE('',*,*,#532,.F.);
#668=ORIENTED_EDGE('',*,*,#533,.F.);
#669=ORIENTED_EDGE('',*,*,#534,.F.);
#670=ORIENTED_EDGE('',*,*,#535,.F.);
#671=ORIENTED_EDGE('',*,*,#536,.F.);
#672=ORIENTED_EDGE('',*,*,#537,.F.);
#673=ORIENTED_EDGE('',*,*,#538,.F.);
#674=ORIENTED_EDGE('',*,*,#539,.F.);
#675=ORIENTED_EDGE('',*,*,#540,.F.);
#676=ORIENTED_EDGE('',*,*,#541,.F.);
#677=ORIENTED_EDGE('',*,*,#518,.F.);
#678=ORIENTED_EDGE('',*,*,#521,.F.);
#679=ORIENTED_EDGE('',*,*,#542,.T.);
#680=ORIENTED_EDGE('',*,*,#543,.T.);
#681=ORIENTED_EDGE('',*,*,#542,.F.);
#682=ORIENTED_EDGE('',*,*,#520,.F.);
#683=ORIENTED_EDGE('',*,*,#526,.T.);
#684=ORIENTED_EDGE('',*,*,#544,.T.);
#685=ORIENTED_EDGE('',*,*,#545,.T.);
#686=ORIENTED_EDGE('',*,*,#546,.F.);
#687=ORIENTED_EDGE('',*,*,#529,.T.);
#688=ORIENTED_EDGE('',*,*,#547,.T.);
#689=ORIENTED_EDGE('',*,*,#548,.T.);
#690=ORIENTED_EDGE('',*,*,#544,.F.);
#691=ORIENTED_EDGE('',*,*,#528,.T.);
#692=ORIENTED_EDGE('',*,*,#549,.T.);
#693=ORIENTED_EDGE('',*,*,#550,.T.);
#694=ORIENTED_EDGE('',*,*,#547,.F.);
#695=ORIENTED_EDGE('',*,*,#551,.T.);
#696=ORIENTED_EDGE('',*,*,#549,.F.);
#697=ORIENTED_EDGE('',*,*,#527,.T.);
#698=ORIENTED_EDGE('',*,*,#546,.T.);
#699=ORIENTED_EDGE('',*,*,#551,.F.);
#700=ORIENTED_EDGE('',*,*,#552,.F.);
#701=ORIENTED_EDGE('',*,*,#553,.T.);
#702=ORIENTED_EDGE('',*,*,#554,.T.);
#703=ORIENTED_EDGE('',*,*,#545,.F.);
#704=ORIENTED_EDGE('',*,*,#555,.F.);
#705=ORIENTED_EDGE('',*,*,#556,.T.);
#706=ORIENTED_EDGE('',*,*,#552,.T.);
#707=ORIENTED_EDGE('',*,*,#538,.T.);
#708=ORIENTED_EDGE('',*,*,#557,.T.);
#709=ORIENTED_EDGE('',*,*,#558,.T.);
#710=ORIENTED_EDGE('',*,*,#559,.F.);
#711=ORIENTED_EDGE('',*,*,#541,.T.);
#712=ORIENTED_EDGE('',*,*,#560,.T.);
#713=ORIENTED_EDGE('',*,*,#561,.T.);
#714=ORIENTED_EDGE('',*,*,#557,.F.);
#715=ORIENTED_EDGE('',*,*,#540,.T.);
#716=ORIENTED_EDGE('',*,*,#562,.T.);
#717=ORIENTED_EDGE('',*,*,#563,.T.);
#718=ORIENTED_EDGE('',*,*,#560,.F.);
#719=ORIENTED_EDGE('',*,*,#564,.T.);
#720=ORIENTED_EDGE('',*,*,#562,.F.);
#721=ORIENTED_EDGE('',*,*,#539,.T.);
#722=ORIENTED_EDGE('',*,*,#559,.T.);
#723=ORIENTED_EDGE('',*,*,#564,.F.);
#724=ORIENTED_EDGE('',*,*,#565,.F.);
#725=ORIENTED_EDGE('',*,*,#566,.T.);
#726=ORIENTED_EDGE('',*,*,#567,.T.);
#727=ORIENTED_EDGE('',*,*,#558,.F.);
#728=ORIENTED_EDGE('',*,*,#568,.F.);
#729=ORIENTED_EDGE('',*,*,#569,.T.);
#730=ORIENTED_EDGE('',*,*,#565,.T.);
#731=ORIENTED_EDGE('',*,*,#530,.T.);
#732=ORIENTED_EDGE('',*,*,#570,.T.);
#733=ORIENTED_EDGE('',*,*,#571,.T.);
#734=ORIENTED_EDGE('',*,*,#572,.F.);
#735=ORIENTED_EDGE('',*,*,#533,.T.);
#736=ORIENTED_EDGE('',*,*,#573,.T.);
#737=ORIENTED_EDGE('',*,*,#574,.T.);
#738=ORIENTED_EDGE('',*,*,#570,.F.);
#739=ORIENTED_EDGE('',*,*,#532,.T.);
#740=ORIENTED_EDGE('',*,*,#575,.T.);
#741=ORIENTED_EDGE('',*,*,#576,.T.);
#742=ORIENTED_EDGE('',*,*,#573,.F.);
#743=ORIENTED_EDGE('',*,*,#577,.T.);
#744=ORIENTED_EDGE('',*,*,#575,.F.);
#745=ORIENTED_EDGE('',*,*,#531,.T.);
#746=ORIENTED_EDGE('',*,*,#572,.T.);
#747=ORIENTED_EDGE('',*,*,#577,.F.);
#748=ORIENTED_EDGE('',*,*,#578,.F.);
#749=ORIENTED_EDGE('',*,*,#579,.T.);
#750=ORIENTED_EDGE('',*,*,#580,.T.);
#751=ORIENTED_EDGE('',*,*,#571,.F.);
#752=ORIENTED_EDGE('',*,*,#581,.F.);
#753=ORIENTED_EDGE('',*,*,#582,.T.);
#754=ORIENTED_EDGE('',*,*,#578,.T.);
#755=ORIENTED_EDGE('',*,*,#534,.T.);
#756=ORIENTED_EDGE('',*,*,#583,.T.);
#757=ORIENTED_EDGE('',*,*,#584,.T.);
#758=ORIENTED_EDGE('',*,*,#585,.F.);
#759=ORIENTED_EDGE('',*,*,#537,.T.);
#760=ORIENTED_EDGE('',*,*,#586,.T.);
#761=ORIENTED_EDGE('',*,*,#587,.T.);
#762=ORIENTED_EDGE('',*,*,#583,.F.);
#763=ORIENTED_EDGE('',*,*,#536,.T.);
#764=ORIENTED_EDGE('',*,*,#588,.T.);
#765=ORIENTED_EDGE('',*,*,#589,.T.);
#766=ORIENTED_EDGE('',*,*,#586,.F.);
#767=ORIENTED_EDGE('',*,*,#590,.T.);
#768=ORIENTED_EDGE('',*,*,#588,.F.);
#769=ORIENTED_EDGE('',*,*,#535,.T.);
#770=ORIENTED_EDGE('',*,*,#585,.T.);
#771=ORIENTED_EDGE('',*,*,#590,.F.);
#772=ORIENTED_EDGE('',*,*,#591,.F.);
#773=ORIENTED_EDGE('',*,*,#592,.T.);
#774=ORIENTED_EDGE('',*,*,#593,.T.);
#775=ORIENTED_EDGE('',*,*,#584,.F.);
#776=ORIENTED_EDGE('',*,*,#594,.F.);
#777=ORIENTED_EDGE('',*,*,#595,.T.);
#778=ORIENTED_EDGE('',*,*,#591,.T.);
#779=ORIENTED_EDGE('',*,*,#596,.T.);
#780=ORIENTED_EDGE('',*,*,#597,.T.);
#781=ORIENTED_EDGE('',*,*,#598,.T.);
#782=ORIENTED_EDGE('',*,*,#522,.T.);
#783=ORIENTED_EDGE('',*,*,#599,.T.);
#784=ORIENTED_EDGE('',*,*,#600,.T.);
#785=ORIENTED_EDGE('',*,*,#601,.T.);
#786=ORIENTED_EDGE('',*,*,#525,.T.);
#787=ORIENTED_EDGE('',*,*,#602,.T.);
#788=ORIENTED_EDGE('',*,*,#524,.T.);
#789=ORIENTED_EDGE('',*,*,#603,.T.);
#790=ORIENTED_EDGE('',*,*,#604,.T.);
#791=ORIENTED_EDGE('',*,*,#605,.T.);
#792=ORIENTED_EDGE('',*,*,#606,.T.);
#793=ORIENTED_EDGE('',*,*,#607,.T.);
#794=ORIENTED_EDGE('',*,*,#523,.T.);
#795=ORIENTED_EDGE('',*,*,#607,.F.);
#796=ORIENTED_EDGE('',*,*,#608,.T.);
#797=ORIENTED_EDGE('',*,*,#603,.F.);
#798=ORIENTED_EDGE('',*,*,#602,.F.);
#799=ORIENTED_EDGE('',*,*,#609,.T.);
#800=ORIENTED_EDGE('',*,*,#599,.F.);
#801=ORIENTED_EDGE('',*,*,#601,.F.);
#802=ORIENTED_EDGE('',*,*,#610,.T.);
#803=ORIENTED_EDGE('',*,*,#596,.F.);
#804=ORIENTED_EDGE('',*,*,#598,.F.);
#805=ORIENTED_EDGE('',*,*,#611,.T.);
#806=ORIENTED_EDGE('',*,*,#605,.F.);
#807=ORIENTED_EDGE('',*,*,#609,.F.);
#808=ORIENTED_EDGE('',*,*,#612,.T.);
#809=ORIENTED_EDGE('',*,*,#613,.T.);
#810=ORIENTED_EDGE('',*,*,#614,.T.);
#811=ORIENTED_EDGE('',*,*,#604,.F.);
#812=ORIENTED_EDGE('',*,*,#615,.F.);
#813=ORIENTED_EDGE('',*,*,#616,.F.);
#814=ORIENTED_EDGE('',*,*,#612,.F.);
#815=ORIENTED_EDGE('',*,*,#608,.F.);
#816=ORIENTED_EDGE('',*,*,#617,.T.);
#817=ORIENTED_EDGE('',*,*,#618,.T.);
#818=ORIENTED_EDGE('',*,*,#615,.T.);
#819=ORIENTED_EDGE('',*,*,#606,.F.);
#820=ORIENTED_EDGE('',*,*,#619,.F.);
#821=ORIENTED_EDGE('',*,*,#620,.F.);
#822=ORIENTED_EDGE('',*,*,#617,.F.);
#823=ORIENTED_EDGE('',*,*,#618,.F.);
#824=ORIENTED_EDGE('',*,*,#620,.T.);
#825=ORIENTED_EDGE('',*,*,#621,.F.);
#826=ORIENTED_EDGE('',*,*,#622,.T.);
#827=ORIENTED_EDGE('',*,*,#623,.F.);
#828=ORIENTED_EDGE('',*,*,#624,.T.);
#829=ORIENTED_EDGE('',*,*,#613,.F.);
#830=ORIENTED_EDGE('',*,*,#616,.T.);
#831=ORIENTED_EDGE('',*,*,#625,.T.);
#832=ORIENTED_EDGE('',*,*,#626,.T.);
#833=ORIENTED_EDGE('',*,*,#627,.T.);
#834=ORIENTED_EDGE('',*,*,#628,.T.);
#835=ORIENTED_EDGE('',*,*,#611,.F.);
#836=ORIENTED_EDGE('',*,*,#629,.T.);
#837=ORIENTED_EDGE('',*,*,#621,.T.);
#838=ORIENTED_EDGE('',*,*,#619,.T.);
#839=ORIENTED_EDGE('',*,*,#600,.F.);
#840=ORIENTED_EDGE('',*,*,#614,.F.);
#841=ORIENTED_EDGE('',*,*,#624,.F.);
#842=ORIENTED_EDGE('',*,*,#630,.F.);
#843=ORIENTED_EDGE('',*,*,#610,.F.);
#844=ORIENTED_EDGE('',*,*,#630,.T.);
#845=ORIENTED_EDGE('',*,*,#623,.T.);
#846=ORIENTED_EDGE('',*,*,#631,.T.);
#847=ORIENTED_EDGE('',*,*,#597,.F.);
#848=ORIENTED_EDGE('',*,*,#631,.F.);
#849=ORIENTED_EDGE('',*,*,#622,.F.);
#850=ORIENTED_EDGE('',*,*,#629,.F.);
#851=ORIENTED_EDGE('',*,*,#632,.F.);
#852=ORIENTED_EDGE('',*,*,#633,.T.);
#853=ORIENTED_EDGE('',*,*,#628,.F.);
#854=ORIENTED_EDGE('',*,*,#634,.F.);
#855=ORIENTED_EDGE('',*,*,#635,.F.);
#856=ORIENTED_EDGE('',*,*,#634,.T.);
#857=ORIENTED_EDGE('',*,*,#627,.F.);
#858=ORIENTED_EDGE('',*,*,#636,.F.);
#859=ORIENTED_EDGE('',*,*,#637,.F.);
#860=ORIENTED_EDGE('',*,*,#636,.T.);
#861=ORIENTED_EDGE('',*,*,#626,.F.);
#862=ORIENTED_EDGE('',*,*,#638,.F.);
#863=ORIENTED_EDGE('',*,*,#639,.F.);
#864=ORIENTED_EDGE('',*,*,#638,.T.);
#865=ORIENTED_EDGE('',*,*,#625,.F.);
#866=ORIENTED_EDGE('',*,*,#633,.F.);
#867=ORIENTED_EDGE('',*,*,#548,.F.);
#868=ORIENTED_EDGE('',*,*,#640,.F.);
#869=ORIENTED_EDGE('',*,*,#641,.T.);
#870=ORIENTED_EDGE('',*,*,#555,.T.);
#871=ORIENTED_EDGE('',*,*,#550,.F.);
#872=ORIENTED_EDGE('',*,*,#554,.F.);
#873=ORIENTED_EDGE('',*,*,#642,.T.);
#874=ORIENTED_EDGE('',*,*,#640,.T.);
#875=ORIENTED_EDGE('',*,*,#561,.F.);
#876=ORIENTED_EDGE('',*,*,#643,.F.);
#877=ORIENTED_EDGE('',*,*,#644,.T.);
#878=ORIENTED_EDGE('',*,*,#568,.T.);
#879=ORIENTED_EDGE('',*,*,#563,.F.);
#880=ORIENTED_EDGE('',*,*,#567,.F.);
#881=ORIENTED_EDGE('',*,*,#645,.T.);
#882=ORIENTED_EDGE('',*,*,#643,.T.);
#883=ORIENTED_EDGE('',*,*,#574,.F.);
#884=ORIENTED_EDGE('',*,*,#646,.F.);
#885=ORIENTED_EDGE('',*,*,#647,.T.);
#886=ORIENTED_EDGE('',*,*,#581,.T.);
#887=ORIENTED_EDGE('',*,*,#576,.F.);
#888=ORIENTED_EDGE('',*,*,#580,.F.);
#889=ORIENTED_EDGE('',*,*,#648,.T.);
#890=ORIENTED_EDGE('',*,*,#646,.T.);
#891=ORIENTED_EDGE('',*,*,#587,.F.);
#892=ORIENTED_EDGE('',*,*,#649,.F.);
#893=ORIENTED_EDGE('',*,*,#650,.T.);
#894=ORIENTED_EDGE('',*,*,#594,.T.);
#895=ORIENTED_EDGE('',*,*,#589,.F.);
#896=ORIENTED_EDGE('',*,*,#593,.F.);
#897=ORIENTED_EDGE('',*,*,#651,.T.);
#898=ORIENTED_EDGE('',*,*,#649,.T.);
#899=ORIENTED_EDGE('',*,*,#632,.T.);
#900=ORIENTED_EDGE('',*,*,#635,.T.);
#901=ORIENTED_EDGE('',*,*,#637,.T.);
#902=ORIENTED_EDGE('',*,*,#639,.T.);
#903=ORIENTED_EDGE('',*,*,#595,.F.);
#904=ORIENTED_EDGE('',*,*,#650,.F.);
#905=ORIENTED_EDGE('',*,*,#651,.F.);
#906=ORIENTED_EDGE('',*,*,#592,.F.);
#907=ORIENTED_EDGE('',*,*,#543,.F.);
#908=ORIENTED_EDGE('',*,*,#579,.F.);
#909=ORIENTED_EDGE('',*,*,#582,.F.);
#910=ORIENTED_EDGE('',*,*,#647,.F.);
#911=ORIENTED_EDGE('',*,*,#648,.F.);
#912=ORIENTED_EDGE('',*,*,#569,.F.);
#913=ORIENTED_EDGE('',*,*,#644,.F.);
#914=ORIENTED_EDGE('',*,*,#645,.F.);
#915=ORIENTED_EDGE('',*,*,#566,.F.);
#916=ORIENTED_EDGE('',*,*,#553,.F.);
#917=ORIENTED_EDGE('',*,*,#556,.F.);
#918=ORIENTED_EDGE('',*,*,#641,.F.);
#919=ORIENTED_EDGE('',*,*,#642,.F.);
#920=TOROIDAL_SURFACE('',#992,1.31,0.5);
#921=ADVANCED_FACE('',(#292),#920,.T.);
#922=ADVANCED_FACE('',(#293,#60,#61,#62,#63,#64),#265,.T.);
#923=ADVANCED_FACE('',(#294),#35,.F.);
#924=ADVANCED_FACE('',(#295),#36,.T.);
#925=ADVANCED_FACE('',(#296),#37,.T.);
#926=ADVANCED_FACE('',(#297),#38,.T.);
#927=ADVANCED_FACE('',(#298),#39,.T.);
#928=ADVANCED_FACE('',(#299),#266,.T.);
#929=ADVANCED_FACE('',(#300),#267,.T.);
#930=ADVANCED_FACE('',(#301),#40,.T.);
#931=ADVANCED_FACE('',(#302),#41,.T.);
#932=ADVANCED_FACE('',(#303),#42,.T.);
#933=ADVANCED_FACE('',(#304),#43,.T.);
#934=ADVANCED_FACE('',(#305),#268,.T.);
#935=ADVANCED_FACE('',(#306),#269,.T.);
#936=ADVANCED_FACE('',(#307),#44,.T.);
#937=ADVANCED_FACE('',(#308),#45,.T.);
#938=ADVANCED_FACE('',(#309),#46,.T.);
#939=ADVANCED_FACE('',(#310),#47,.T.);
#940=ADVANCED_FACE('',(#311),#270,.T.);
#941=ADVANCED_FACE('',(#312),#271,.T.);
#942=ADVANCED_FACE('',(#313),#48,.T.);
#943=ADVANCED_FACE('',(#314),#49,.T.);
#944=ADVANCED_FACE('',(#315),#50,.T.);
#945=ADVANCED_FACE('',(#316),#51,.T.);
#946=ADVANCED_FACE('',(#317),#272,.T.);
#947=ADVANCED_FACE('',(#318),#273,.T.);
#948=ADVANCED_FACE('',(#319),#52,.T.);
#949=ADVANCED_FACE('',(#320),#53,.T.);
#950=ADVANCED_FACE('',(#321),#54,.T.);
#951=ADVANCED_FACE('',(#322),#55,.T.);
#952=ADVANCED_FACE('',(#323),#15,.T.);
#953=ADVANCED_FACE('',(#324),#16,.T.);
#954=ADVANCED_FACE('',(#325),#17,.T.);
#955=ADVANCED_FACE('',(#326),#18,.T.);
#956=ADVANCED_FACE('',(#327),#56,.T.);
#957=ADVANCED_FACE('',(#328),#274,.T.);
#958=ADVANCED_FACE('',(#329),#57,.T.);
#959=ADVANCED_FACE('',(#330),#275,.T.);
#960=ADVANCED_FACE('',(#331,#65),#276,.T.);
#961=ADVANCED_FACE('',(#332),#58,.T.);
#962=ADVANCED_FACE('',(#333),#277,.T.);
#963=ADVANCED_FACE('',(#334),#59,.T.);
#964=ADVANCED_FACE('',(#335),#278,.T.);
#965=ADVANCED_FACE('',(#336),#279,.T.);
#966=ADVANCED_FACE('',(#337),#280,.T.);
#967=ADVANCED_FACE('',(#338),#281,.T.);
#968=ADVANCED_FACE('',(#339),#282,.T.);
#969=ADVANCED_FACE('',(#340),#283,.T.);
#970=ADVANCED_FACE('',(#341),#284,.T.);
#971=ADVANCED_FACE('',(#342),#285,.T.);
#972=ADVANCED_FACE('',(#343),#286,.T.);
#973=ADVANCED_FACE('',(#344),#287,.T.);
#974=ADVANCED_FACE('',(#345),#288,.T.);
#975=ADVANCED_FACE('',(#346),#289,.T.);
#976=ADVANCED_FACE('',(#347),#290,.T.);
#977=ADVANCED_FACE('',(#348,#66,#67,#68,#69,#70),#291,.F.);
#978=CLOSED_SHELL('',(#921,#922,#923,#924,#925,#926,#927,#928,#929,#930,
#931,#932,#933,#934,#935,#936,#937,#938,#939,#940,#941,#942,#943,#944,#945,
#946,#947,#948,#949,#950,#951,#952,#953,#954,#955,#956,#957,#958,#959,#960,
#961,#962,#963,#964,#965,#966,#967,#968,#969,#970,#971,#972,#973,#974,#975,
#976,#977));
#979=DERIVED_UNIT_ELEMENT(#981,1.);
#980=DERIVED_UNIT_ELEMENT(#1650,-3.);
#981=(
MASS_UNIT()
NAMED_UNIT(*)
SI_UNIT(.KILO.,.GRAM.)
);
#982=DERIVED_UNIT((#979,#980));
#983=MEASURE_REPRESENTATION_ITEM('density measure',
POSITIVE_RATIO_MEASURE(7850.),#982);
#984=PROPERTY_DEFINITION_REPRESENTATION(#989,#986);
#985=PROPERTY_DEFINITION_REPRESENTATION(#990,#987);
#986=REPRESENTATION('material name',(#988),#1647);
#987=REPRESENTATION('density',(#983),#1647);
#988=DESCRIPTIVE_REPRESENTATION_ITEM('Steel','Steel');
#989=PROPERTY_DEFINITION('material property','material name',#1657);
#990=PROPERTY_DEFINITION('material property','density of part',#1657);
#991=AXIS2_PLACEMENT_3D('',#1373,#1086,#1087);
#992=AXIS2_PLACEMENT_3D('',#1374,#1088,#1089);
#993=AXIS2_PLACEMENT_3D('',#1376,#1090,#1091);
#994=AXIS2_PLACEMENT_3D('',#1378,#1092,#1093);
#995=AXIS2_PLACEMENT_3D('',#1380,#1094,#1095);
#996=AXIS2_PLACEMENT_3D('',#1381,#1096,#1097);
#997=AXIS2_PLACEMENT_3D('',#1382,#1098,#1099);
#998=AXIS2_PLACEMENT_3D('',#1423,#1120,#1121);
#999=AXIS2_PLACEMENT_3D('',#1426,#1123,#1124);
#1000=AXIS2_PLACEMENT_3D('',#1427,#1125,#1126);
#1001=AXIS2_PLACEMENT_3D('',#1429,#1127,#1128);
#1002=AXIS2_PLACEMENT_3D('',#1432,#1130,#1131);
#1003=AXIS2_PLACEMENT_3D('',#1433,#1132,#1133);
#1004=AXIS2_PLACEMENT_3D('',#1435,#1134,#1135);
#1005=AXIS2_PLACEMENT_3D('',#1437,#1137,#1138);
#1006=AXIS2_PLACEMENT_3D('',#1439,#1139,#1140);
#1007=AXIS2_PLACEMENT_3D('',#1441,#1142,#1143);
#1008=AXIS2_PLACEMENT_3D('',#1443,#1145,#1146);
#1009=AXIS2_PLACEMENT_3D('',#1449,#1150,#1151);
#1010=AXIS2_PLACEMENT_3D('',#1453,#1154,#1155);
#1011=AXIS2_PLACEMENT_3D('',#1455,#1156,#1157);
#1012=AXIS2_PLACEMENT_3D('',#1458,#1159,#1160);
#1013=AXIS2_PLACEMENT_3D('',#1459,#1161,#1162);
#1014=AXIS2_PLACEMENT_3D('',#1461,#1163,#1164);
#1015=AXIS2_PLACEMENT_3D('',#1463,#1166,#1167);
#1016=AXIS2_PLACEMENT_3D('',#1465,#1168,#1169);
#1017=AXIS2_PLACEMENT_3D('',#1467,#1171,#1172);
#1018=AXIS2_PLACEMENT_3D('',#1469,#1174,#1175);
#1019=AXIS2_PLACEMENT_3D('',#1475,#1179,#1180);
#1020=AXIS2_PLACEMENT_3D('',#1479,#1183,#1184);
#1021=AXIS2_PLACEMENT_3D('',#1481,#1185,#1186);
#1022=AXIS2_PLACEMENT_3D('',#1484,#1188,#1189);
#1023=AXIS2_PLACEMENT_3D('',#1485,#1190,#1191);
#1024=AXIS2_PLACEMENT_3D('',#1487,#1192,#1193);
#1025=AXIS2_PLACEMENT_3D('',#1489,#1195,#1196);
#1026=AXIS2_PLACEMENT_3D('',#1491,#1197,#1198);
#1027=AXIS2_PLACEMENT_3D('',#1493,#1200,#1201);
#1028=AXIS2_PLACEMENT_3D('',#1495,#1203,#1204);
#1029=AXIS2_PLACEMENT_3D('',#1501,#1208,#1209);
#1030=AXIS2_PLACEMENT_3D('',#1505,#1212,#1213);
#1031=AXIS2_PLACEMENT_3D('',#1507,#1214,#1215);
#1032=AXIS2_PLACEMENT_3D('',#1510,#1217,#1218);
#1033=AXIS2_PLACEMENT_3D('',#1511,#1219,#1220);
#1034=AXIS2_PLACEMENT_3D('',#1513,#1221,#1222);
#1035=AXIS2_PLACEMENT_3D('',#1515,#1224,#1225);
#1036=AXIS2_PLACEMENT_3D('',#1517,#1226,#1227);
#1037=AXIS2_PLACEMENT_3D('',#1519,#1229,#1230);
#1038=AXIS2_PLACEMENT_3D('',#1521,#1232,#1233);
#1039=AXIS2_PLACEMENT_3D('',#1527,#1237,#1238);
#1040=AXIS2_PLACEMENT_3D('',#1531,#1241,#1242);
#1041=AXIS2_PLACEMENT_3D('',#1533,#1243,#1244);
#1042=AXIS2_PLACEMENT_3D('',#1536,#1246,#1247);
#1043=AXIS2_PLACEMENT_3D('',#1537,#1248,#1249);
#1044=AXIS2_PLACEMENT_3D('',#1539,#1250,#1251);
#1045=AXIS2_PLACEMENT_3D('',#1542,#1253,#1254);
#1046=AXIS2_PLACEMENT_3D('',#1543,#1255,#1256);
#1047=AXIS2_PLACEMENT_3D('',#1545,#1257,#1258);
#1048=AXIS2_PLACEMENT_3D('',#1547,#1259,#1260);
#1049=AXIS2_PLACEMENT_3D('',#1549,#1262,#1263);
#1050=AXIS2_PLACEMENT_3D('',#1551,#1264,#1265);
#1051=AXIS2_PLACEMENT_3D('',#1554,#1267,#1268);
#1052=AXIS2_PLACEMENT_3D('',#1555,#1269,#1270);
#1053=AXIS2_PLACEMENT_3D('',#1556,#1271,#1272);
#1054=AXIS2_PLACEMENT_3D('',#1557,#1273,#1274);
#1055=AXIS2_PLACEMENT_3D('',#1558,#1275,#1276);
#1056=AXIS2_PLACEMENT_3D('',#1559,#1277,#1278);
#1057=AXIS2_PLACEMENT_3D('',#1560,#1279,#1280);
#1058=AXIS2_PLACEMENT_3D('',#1561,#1281,#1282);
#1059=AXIS2_PLACEMENT_3D('',#1562,#1283,#1284);
#1060=AXIS2_PLACEMENT_3D('',#1563,#1285,#1286);
#1061=AXIS2_PLACEMENT_3D('',#1567,#1288,#1289);
#1062=AXIS2_PLACEMENT_3D('',#1569,#1291,#1292);
#1063=AXIS2_PLACEMENT_3D('',#1573,#1295,#1296);
#1064=AXIS2_PLACEMENT_3D('',#1576,#1298,#1299);
#1065=AXIS2_PLACEMENT_3D('',#1577,#1300,#1301);
#1066=AXIS2_PLACEMENT_3D('',#1581,#1304,#1305);
#1067=AXIS2_PLACEMENT_3D('',#1583,#1306,#1307);
#1068=AXIS2_PLACEMENT_3D('',#1587,#1309,#1310);
#1069=AXIS2_PLACEMENT_3D('',#1597,#1316,#1317);
#1070=AXIS2_PLACEMENT_3D('',#1599,#1319,#1320);
#1071=AXIS2_PLACEMENT_3D('',#1601,#1322,#1323);
#1072=AXIS2_PLACEMENT_3D('',#1603,#1325,#1326);
#1073=AXIS2_PLACEMENT_3D('',#1604,#1327,#1328);
#1074=AXIS2_PLACEMENT_3D('',#1610,#1332,#1333);
#1075=AXIS2_PLACEMENT_3D('',#1614,#1336,#1337);
#1076=AXIS2_PLACEMENT_3D('',#1618,#1340,#1341);
#1077=AXIS2_PLACEMENT_3D('',#1620,#1343,#1344);
#1078=AXIS2_PLACEMENT_3D('',#1624,#1347,#1348);
#1079=AXIS2_PLACEMENT_3D('',#1626,#1350,#1351);
#1080=AXIS2_PLACEMENT_3D('',#1630,#1354,#1355);
#1081=AXIS2_PLACEMENT_3D('',#1632,#1357,#1358);
#1082=AXIS2_PLACEMENT_3D('',#1636,#1361,#1362);
#1083=AXIS2_PLACEMENT_3D('',#1638,#1364,#1365);
#1084=AXIS2_PLACEMENT_3D('',#1642,#1368,#1369);
#1085=AXIS2_PLACEMENT_3D('',#1644,#1371,#1372);
#1086=DIRECTION('axis',(0.,0.,1.));
#1087=DIRECTION('refdir',(1.,0.,0.));
#1088=DIRECTION('center_axis',(0.,0.,-1.));
#1089=DIRECTION('ref_axis',(-1.,0.,0.));
#1090=DIRECTION('center_axis',(0.,0.,1.));
#1091=DIRECTION('ref_axis',(1.,0.,0.));
#1092=DIRECTION('center_axis',(0.,-1.,0.));
#1093=DIRECTION('ref_axis',(1.,0.,0.));
#1094=DIRECTION('center_axis',(0.,0.,-1.));
#1095=DIRECTION('ref_axis',(1.,0.,0.));
#1096=DIRECTION('center_axis',(0.,0.,-1.));
#1097=DIRECTION('ref_axis',(1.,0.,0.));
#1098=DIRECTION('center_axis',(0.,0.,1.));
#1099=DIRECTION('ref_axis',(1.,0.,0.));
#1100=DIRECTION('',(0.,-1.,0.));
#1101=DIRECTION('',(1.,0.,0.));
#1102=DIRECTION('',(0.,1.,0.));
#1103=DIRECTION('',(-1.,0.,0.));
#1104=DIRECTION('',(0.,1.,0.));
#1105=DIRECTION('',(1.,0.,0.));
#1106=DIRECTION('',(0.,-1.,0.));
#1107=DIRECTION('',(-1.,0.,0.));
#1108=DIRECTION('',(0.,1.,0.));
#1109=DIRECTION('',(1.,0.,0.));
#1110=DIRECTION('',(0.,-1.,0.));
#1111=DIRECTION('',(-1.,0.,0.));
#1112=DIRECTION('',(1.,0.,0.));
#1113=DIRECTION('',(0.,-1.,0.));
#1114=DIRECTION('',(-1.,0.,0.));
#1115=DIRECTION('',(0.,1.,0.));
#1116=DIRECTION('',(1.,0.,0.));
#1117=DIRECTION('',(0.,-1.,0.));
#1118=DIRECTION('',(-1.,0.,0.));
#1119=DIRECTION('',(0.,1.,0.));
#1120=DIRECTION('center_axis',(0.,0.,1.));
#1121=DIRECTION('ref_axis',(1.,0.,0.));
#1122=DIRECTION('',(0.,0.,-1.));
#1123=DIRECTION('center_axis',(0.,0.,-1.));
#1124=DIRECTION('ref_axis',(1.,0.,0.));
#1125=DIRECTION('center_axis',(0.,-1.,0.));
#1126=DIRECTION('ref_axis',(-0.707106781186561,0.,0.707106781186534));
#1127=DIRECTION('center_axis',(0.707106781186542,-0.707106781186553,0.));
#1128=DIRECTION('ref_axis',(0.707106781186553,0.707106781186542,0.));
#1129=DIRECTION('',(0.,-1.,0.));
#1130=DIRECTION('center_axis',(-0.707106781186542,-0.707106781186553,0.));
#1131=DIRECTION('ref_axis',(0.707106781186553,-0.707106781186542,0.));
#1132=DIRECTION('center_axis',(1.,0.,0.));
#1133=DIRECTION('ref_axis',(0.,-0.707106781186551,0.707106781186544));
#1134=DIRECTION('center_axis',(0.707106781186542,0.707106781186553,0.));
#1135=DIRECTION('ref_axis',(-0.707106781186553,0.707106781186542,0.));
#1136=DIRECTION('',(1.,0.,0.));
#1137=DIRECTION('center_axis',(0.,1.,0.));
#1138=DIRECTION('ref_axis',(0.707106781186561,0.,0.707106781186534));
#1139=DIRECTION('center_axis',(-0.707106781186542,0.707106781186553,0.));
#1140=DIRECTION('ref_axis',(-0.707106781186553,-0.707106781186542,0.));
#1141=DIRECTION('',(0.,1.,0.));
#1142=DIRECTION('center_axis',(-1.,0.,0.));
#1143=DIRECTION('ref_axis',(0.,0.707106781186551,0.707106781186544));
#1144=DIRECTION('',(-1.,0.,0.));
#1145=DIRECTION('center_axis',(0.,1.,0.));
#1146=DIRECTION('ref_axis',(-1.,0.,0.));
#1147=DIRECTION('',(0.,0.,1.));
#1148=DIRECTION('',(-1.,0.,0.));
#1149=DIRECTION('',(0.,0.,1.));
#1150=DIRECTION('center_axis',(-1.,0.,0.));
#1151=DIRECTION('ref_axis',(0.,-1.,0.));
#1152=DIRECTION('',(0.,0.,1.));
#1153=DIRECTION('',(0.,-1.,0.));
#1154=DIRECTION('center_axis',(-1.,0.,0.));
#1155=DIRECTION('ref_axis',(0.,0.707106781186546,0.707106781186549));
#1156=DIRECTION('center_axis',(-0.70710678118655,-0.707106781186545,0.));
#1157=DIRECTION('ref_axis',(0.707106781186545,-0.70710678118655,0.));
#1158=DIRECTION('',(-1.,0.,0.));
#1159=DIRECTION('center_axis',(-0.70710678118655,0.707106781186545,0.));
#1160=DIRECTION('ref_axis',(-0.707106781186545,-0.70710678118655,0.));
#1161=DIRECTION('center_axis',(0.,-1.,0.));
#1162=DIRECTION('ref_axis',(-0.70710678118654,0.,0.707106781186555));
#1163=DIRECTION('center_axis',(0.70710678118655,-0.707106781186545,0.));
#1164=DIRECTION('ref_axis',(0.707106781186545,0.70710678118655,0.));
#1165=DIRECTION('',(0.,-1.,0.));
#1166=DIRECTION('center_axis',(1.,0.,0.));
#1167=DIRECTION('ref_axis',(0.,-0.707106781186551,0.707106781186544));
#1168=DIRECTION('center_axis',(0.70710678118655,0.707106781186545,0.));
#1169=DIRECTION('ref_axis',(-0.707106781186545,0.70710678118655,0.));
#1170=DIRECTION('',(1.,0.,0.));
#1171=DIRECTION('center_axis',(0.,1.,0.));
#1172=DIRECTION('ref_axis',(0.707106781186551,0.,0.707106781186544));
#1173=DIRECTION('',(0.,1.,0.));
#1174=DIRECTION('center_axis',(1.,0.,0.));
#1175=DIRECTION('ref_axis',(0.,1.,0.));
#1176=DIRECTION('',(0.,0.,1.));
#1177=DIRECTION('',(0.,1.,0.));
#1178=DIRECTION('',(0.,0.,1.));
#1179=DIRECTION('center_axis',(0.,1.,0.));
#1180=DIRECTION('ref_axis',(-1.,0.,0.));
#1181=DIRECTION('',(0.,0.,1.));
#1182=DIRECTION('',(-1.,0.,0.));
#1183=DIRECTION('center_axis',(0.,-1.,0.));
#1184=DIRECTION('ref_axis',(-0.707106781186551,0.,0.707106781186544));
#1185=DIRECTION('center_axis',(0.707106781186549,-0.707106781186546,0.));
#1186=DIRECTION('ref_axis',(0.707106781186546,0.707106781186549,0.));
#1187=DIRECTION('',(0.,-1.,0.));
#1188=DIRECTION('center_axis',(-0.70710678118655,-0.707106781186545,0.));
#1189=DIRECTION('ref_axis',(0.707106781186545,-0.70710678118655,0.));
#1190=DIRECTION('center_axis',(1.,0.,0.));
#1191=DIRECTION('ref_axis',(0.,-0.707106781186548,0.707106781186548));
#1192=DIRECTION('center_axis',(0.707106781186549,0.707106781186546,-2.61682076447295E-15));
#1193=DIRECTION('ref_axis',(-0.707106781186546,0.707106781186549,-2.61682076447297E-15));
#1194=DIRECTION('',(1.,0.,0.));
#1195=DIRECTION('center_axis',(0.,1.,0.));
#1196=DIRECTION('ref_axis',(0.70710678118654,0.,0.707106781186555));
#1197=DIRECTION('center_axis',(-0.70710678118655,0.707106781186545,0.));
#1198=DIRECTION('ref_axis',(-0.707106781186545,-0.70710678118655,0.));
#1199=DIRECTION('',(0.,1.,0.));
#1200=DIRECTION('center_axis',(-1.,0.,0.));
#1201=DIRECTION('ref_axis',(0.,0.707106781186548,0.707106781186547));
#1202=DIRECTION('',(-1.,0.,0.));
#1203=DIRECTION('center_axis',(0.,1.,0.));
#1204=DIRECTION('ref_axis',(-1.,0.,0.));
#1205=DIRECTION('',(0.,0.,1.));
#1206=DIRECTION('',(-1.,0.,0.));
#1207=DIRECTION('',(0.,0.,1.));
#1208=DIRECTION('center_axis',(-1.,0.,0.));
#1209=DIRECTION('ref_axis',(0.,-1.,0.));
#1210=DIRECTION('',(0.,0.,1.));
#1211=DIRECTION('',(0.,-1.,0.));
#1212=DIRECTION('center_axis',(-1.,0.,0.));
#1213=DIRECTION('ref_axis',(0.,0.707106781186548,0.707106781186547));
#1214=DIRECTION('center_axis',(-0.707106781186548,-0.707106781186548,0.));
#1215=DIRECTION('ref_axis',(0.707106781186547,-0.707106781186547,0.));
#1216=DIRECTION('',(-1.,0.,0.));
#1217=DIRECTION('center_axis',(-0.707106781186548,0.707106781186547,0.));
#1218=DIRECTION('ref_axis',(-0.707106781186547,-0.707106781186548,0.));
#1219=DIRECTION('center_axis',(0.,-1.,0.));
#1220=DIRECTION('ref_axis',(-0.707106781186548,0.,0.707106781186547));
#1221=DIRECTION('center_axis',(0.707106781186549,-0.707106781186546,-2.61682076447295E-15));
#1222=DIRECTION('ref_axis',(0.707106781186546,0.707106781186549,-2.61682076447294E-15));
#1223=DIRECTION('',(0.,-1.,0.));
#1224=DIRECTION('center_axis',(1.,0.,0.));
#1225=DIRECTION('ref_axis',(0.,-0.707106781186548,0.707106781186547));
#1226=DIRECTION('center_axis',(0.707106781186548,0.707106781186547,2.61682076447296E-15));
#1227=DIRECTION('ref_axis',(-0.707106781186547,0.707106781186548,2.61682076447296E-15));
#1228=DIRECTION('',(1.,0.,0.));
#1229=DIRECTION('center_axis',(0.,1.,0.));
#1230=DIRECTION('ref_axis',(0.707106781186548,0.,0.707106781186547));
#1231=DIRECTION('',(0.,1.,0.));
#1232=DIRECTION('center_axis',(1.,0.,0.));
#1233=DIRECTION('ref_axis',(0.,1.,0.));
#1234=DIRECTION('',(0.,0.,1.));
#1235=DIRECTION('',(0.,1.,0.));
#1236=DIRECTION('',(0.,0.,1.));
#1237=DIRECTION('center_axis',(0.,1.,0.));
#1238=DIRECTION('ref_axis',(-1.,0.,0.));
#1239=DIRECTION('',(0.,0.,1.));
#1240=DIRECTION('',(-1.,0.,0.));
#1241=DIRECTION('center_axis',(0.,1.,0.));
#1242=DIRECTION('ref_axis',(0.707106781186546,0.,0.707106781186549));
#1243=DIRECTION('center_axis',(0.,1.,0.));
#1244=DIRECTION('ref_axis',(0.,0.,1.));
#1245=DIRECTION('',(0.,1.,0.));
#1246=DIRECTION('center_axis',(0.,-1.,0.));
#1247=DIRECTION('ref_axis',(1.,0.,0.));
#1248=DIRECTION('center_axis',(1.,0.,0.));
#1249=DIRECTION('ref_axis',(0.,-0.707106781186548,0.707106781186547));
#1250=DIRECTION('center_axis',(1.,0.,0.));
#1251=DIRECTION('ref_axis',(0.,0.,1.));
#1252=DIRECTION('',(1.,0.,0.));
#1253=DIRECTION('center_axis',(-1.,0.,0.));
#1254=DIRECTION('ref_axis',(0.,-1.,0.));
#1255=DIRECTION('center_axis',(0.,1.,0.));
#1256=DIRECTION('ref_axis',(-0.707106781186548,0.,0.707106781186548));
#1257=DIRECTION('center_axis',(0.,1.,0.));
#1258=DIRECTION('ref_axis',(-1.,0.,0.));
#1259=DIRECTION('center_axis',(0.,-1.,0.));
#1260=DIRECTION('ref_axis',(0.,0.,1.));
#1261=DIRECTION('',(0.,-1.,0.));
#1262=DIRECTION('center_axis',(-1.,0.,0.));
#1263=DIRECTION('ref_axis',(0.,0.707106781186548,0.707106781186548));
#1264=DIRECTION('center_axis',(-1.,0.,0.));
#1265=DIRECTION('ref_axis',(0.,0.,1.));
#1266=DIRECTION('',(-1.,0.,0.));
#1267=DIRECTION('center_axis',(1.,0.,0.));
#1268=DIRECTION('ref_axis',(0.,1.,0.));
#1269=DIRECTION('center_axis',(-0.408248290463863,0.408248290463862,-0.816496580927726));
#1270=DIRECTION('ref_axis',(-0.577350269189627,0.577350269189625,0.577350269189625));
#1271=DIRECTION('center_axis',(0.,0.,1.));
#1272=DIRECTION('ref_axis',(-0.707106781186548,0.707106781186547,0.));
#1273=DIRECTION('center_axis',(0.408248290463863,-0.816496580927726,-0.408248290463863));
#1274=DIRECTION('ref_axis',(-0.577350269189626,-0.577350269189625,0.577350269189626));
#1275=DIRECTION('center_axis',(0.,0.,1.));
#1276=DIRECTION('ref_axis',(-0.707106781186546,-0.707106781186549,0.));
#1277=DIRECTION('center_axis',(-0.408248290463862,-0.816496580927726,-0.408248290463863));
#1278=DIRECTION('ref_axis',(0.577350269189625,-0.577350269189625,0.577350269189627));
#1279=DIRECTION('center_axis',(0.,0.,1.));
#1280=DIRECTION('ref_axis',(0.707106781186546,-0.707106781186549,0.));
#1281=DIRECTION('center_axis',(0.408248290463862,-0.816496580927727,0.408248290463863));
#1282=DIRECTION('ref_axis',(0.577350269189627,0.577350269189624,0.577350269189626));
#1283=DIRECTION('center_axis',(0.,0.,1.));
#1284=DIRECTION('ref_axis',(0.707106781186546,0.707106781186549,0.));
#1285=DIRECTION('center_axis',(0.,0.,-1.));
#1286=DIRECTION('ref_axis',(-0.707106781186547,-0.707106781186548,0.));
#1287=DIRECTION('',(0.,0.,-1.));
#1288=DIRECTION('center_axis',(0.,0.,1.));
#1289=DIRECTION('ref_axis',(-0.707106781186547,-0.707106781186548,0.));
#1290=DIRECTION('',(0.,0.,1.));
#1291=DIRECTION('center_axis',(-1.,0.,0.));
#1292=DIRECTION('ref_axis',(0.,0.,1.));
#1293=DIRECTION('',(0.,0.,1.));
#1294=DIRECTION('',(0.,1.,0.));
#1295=DIRECTION('center_axis',(0.,0.,-1.));
#1296=DIRECTION('ref_axis',(-0.707106781186548,0.707106781186547,0.));
#1297=DIRECTION('',(0.,0.,-1.));
#1298=DIRECTION('center_axis',(0.,0.,1.));
#1299=DIRECTION('ref_axis',(-0.707106781186548,0.707106781186547,0.));
#1300=DIRECTION('center_axis',(0.,1.,0.));
#1301=DIRECTION('ref_axis',(0.,0.,1.));
#1302=DIRECTION('',(0.,0.,1.));
#1303=DIRECTION('',(1.,0.,0.));
#1304=DIRECTION('center_axis',(0.,0.,-1.));
#1305=DIRECTION('ref_axis',(-1.,0.,0.));
#1306=DIRECTION('center_axis',(0.,0.,1.));
#1307=DIRECTION('ref_axis',(0.707106781186547,0.707106781186548,0.));
#1308=DIRECTION('',(0.,-1.,0.));
#1309=DIRECTION('center_axis',(0.,0.,1.));
#1310=DIRECTION('ref_axis',(0.707106781186545,-0.70710678118655,0.));
#1311=DIRECTION('',(-1.,0.,0.));
#1312=DIRECTION('',(0.,1.,0.));
#1313=DIRECTION('',(-1.,0.,0.));
#1314=DIRECTION('',(0.,-1.,0.));
#1315=DIRECTION('',(1.,0.,0.));
#1316=DIRECTION('center_axis',(0.,0.,-1.));
#1317=DIRECTION('ref_axis',(0.707106781186547,0.707106781186548,0.));
#1318=DIRECTION('',(0.,0.,-1.));
#1319=DIRECTION('center_axis',(0.,-1.,0.));
#1320=DIRECTION('ref_axis',(0.,0.,-1.));
#1321=DIRECTION('',(0.,0.,-1.));
#1322=DIRECTION('center_axis',(0.,0.,-1.));
#1323=DIRECTION('ref_axis',(0.707106781186545,-0.70710678118655,0.));
#1324=DIRECTION('',(0.,0.,1.));
#1325=DIRECTION('center_axis',(1.,0.,0.));
#1326=DIRECTION('ref_axis',(0.,0.,-1.));
#1327=DIRECTION('center_axis',(0.,1.,0.));
#1328=DIRECTION('ref_axis',(1.,0.,0.));
#1329=DIRECTION('',(-1.,0.,0.));
#1330=DIRECTION('',(0.,0.,-1.));
#1331=DIRECTION('',(0.,0.,-1.));
#1332=DIRECTION('center_axis',(1.,0.,0.));
#1333=DIRECTION('ref_axis',(0.,-1.,0.));
#1334=DIRECTION('',(0.,1.,0.));
#1335=DIRECTION('',(0.,0.,-1.));
#1336=DIRECTION('center_axis',(0.,-1.,0.));
#1337=DIRECTION('ref_axis',(-1.,0.,0.));
#1338=DIRECTION('',(1.,0.,0.));
#1339=DIRECTION('',(0.,0.,-1.));
#1340=DIRECTION('center_axis',(-1.,0.,0.));
#1341=DIRECTION('ref_axis',(0.,1.,0.));
#1342=DIRECTION('',(0.,-1.,0.));
#1343=DIRECTION('center_axis',(0.,-1.,0.));
#1344=DIRECTION('ref_axis',(1.,0.,0.));
#1345=DIRECTION('',(0.,0.,1.));
#1346=DIRECTION('',(1.,0.,0.));
#1347=DIRECTION('center_axis',(1.,0.,0.));
#1348=DIRECTION('ref_axis',(0.,1.,0.));
#1349=DIRECTION('',(0.,1.,0.));
#1350=DIRECTION('center_axis',(-1.,0.,0.));
#1351=DIRECTION('ref_axis',(0.,-1.,0.));
#1352=DIRECTION('',(0.,0.,1.));
#1353=DIRECTION('',(0.,-1.,0.));
#1354=DIRECTION('center_axis',(0.,-1.,0.));
#1355=DIRECTION('ref_axis',(1.,0.,0.));
#1356=DIRECTION('',(1.,0.,0.));
#1357=DIRECTION('center_axis',(0.,-1.,0.));
#1358=DIRECTION('ref_axis',(1.,0.,0.));
#1359=DIRECTION('',(0.,0.,1.));
#1360=DIRECTION('',(1.,0.,0.));
#1361=DIRECTION('center_axis',(1.,0.,0.));
#1362=DIRECTION('ref_axis',(0.,1.,0.));
#1363=DIRECTION('',(0.,1.,0.));
#1364=DIRECTION('center_axis',(-1.,0.,0.));
#1365=DIRECTION('ref_axis',(0.,-1.,0.));
#1366=DIRECTION('',(0.,0.,1.));
#1367=DIRECTION('',(0.,-1.,0.));
#1368=DIRECTION('center_axis',(0.,-1.,0.));
#1369=DIRECTION('ref_axis',(1.,0.,0.));
#1370=DIRECTION('',(1.,0.,0.));
#1371=DIRECTION('center_axis',(0.,0.,1.));
#1372=DIRECTION('ref_axis',(1.,0.,0.));
#1373=CARTESIAN_POINT('',(0.,0.,0.));
#1374=CARTESIAN_POINT('Origin',(43.42,-35.69,1.5));
#1375=CARTESIAN_POINT('',(44.73,-35.69,2.));
#1376=CARTESIAN_POINT('Origin',(43.42,-35.69,2.));
#1377=CARTESIAN_POINT('',(44.23,-35.69,1.5));
#1378=CARTESIAN_POINT('Origin',(44.73,-35.69,1.5));
#1379=CARTESIAN_POINT('',(42.61,-35.69,1.5));
#1380=CARTESIAN_POINT('Origin',(43.42,-35.69,1.5));
#1381=CARTESIAN_POINT('Origin',(43.42,-35.69,1.5));
#1382=CARTESIAN_POINT('Origin',(27.5,-21.,2.));
#1383=CARTESIAN_POINT('',(54.4,-0.600000000000001,2.));
#1384=CARTESIAN_POINT('',(54.4,-41.4,2.));
#1385=CARTESIAN_POINT('',(54.4,-31.5,2.));
#1386=CARTESIAN_POINT('',(0.600000000000001,-0.600000000000001,2.));
#1387=CARTESIAN_POINT('',(41.25,-0.600000000000001,2.));
#1388=CARTESIAN_POINT('',(0.600000000000001,-41.4,2.));
#1389=CARTESIAN_POINT('',(0.600000000000001,-10.5,2.));
#1390=CARTESIAN_POINT('',(13.75,-41.4,2.));
#1391=CARTESIAN_POINT('',(50.67,-33.77,2.));
#1392=CARTESIAN_POINT('',(50.67,-28.67,2.));
#1393=CARTESIAN_POINT('',(50.67,-24.985,2.));
#1394=CARTESIAN_POINT('',(44.17,-33.77,2.));
#1395=CARTESIAN_POINT('',(38.935,-33.77,2.));
#1396=CARTESIAN_POINT('',(44.17,-28.67,2.));
#1397=CARTESIAN_POINT('',(44.17,-27.235,2.));
#1398=CARTESIAN_POINT('',(35.985,-28.67,2.));
#1399=CARTESIAN_POINT('',(25.86,-5.47,2.));
#1400=CARTESIAN_POINT('',(25.86,-1.9,2.));
#1401=CARTESIAN_POINT('',(25.86,-11.6,2.));
#1402=CARTESIAN_POINT('',(22.9,-5.47,2.));
#1403=CARTESIAN_POINT('',(26.53,-5.47,2.));
#1404=CARTESIAN_POINT('',(22.9,-1.9,2.));
#1405=CARTESIAN_POINT('',(22.9,-13.085,2.));
#1406=CARTESIAN_POINT('',(25.35,-1.9,2.));
#1407=CARTESIAN_POINT('',(3.14,-6.12,2.));
#1408=CARTESIAN_POINT('',(8.24,-6.12,2.));
#1409=CARTESIAN_POINT('',(17.72,-6.12,2.));
#1410=CARTESIAN_POINT('',(3.14,-1.02,2.));
#1411=CARTESIAN_POINT('',(3.14,-13.41,2.));
#1412=CARTESIAN_POINT('',(8.24,-1.02,2.));
#1413=CARTESIAN_POINT('',(15.47,-1.02,2.));
#1414=CARTESIAN_POINT('',(8.24,-11.16,2.));
#1415=CARTESIAN_POINT('',(26.52,-18.1,2.));
#1416=CARTESIAN_POINT('',(30.03,-18.1,2.));
#1417=CARTESIAN_POINT('',(28.615,-18.1,2.));
#1418=CARTESIAN_POINT('',(26.52,-13.03,2.));
#1419=CARTESIAN_POINT('',(26.52,-19.4,2.));
#1420=CARTESIAN_POINT('',(30.03,-13.03,2.));
#1421=CARTESIAN_POINT('',(27.16,-13.03,2.));
#1422=CARTESIAN_POINT('',(30.03,-17.165,2.));
#1423=CARTESIAN_POINT('Origin',(43.42,-35.69,0.));
#1424=CARTESIAN_POINT('',(42.61,-35.69,0.));
#1425=CARTESIAN_POINT('',(42.61,-35.69,0.));
#1426=CARTESIAN_POINT('Origin',(43.42,-35.69,0.));
#1427=CARTESIAN_POINT('Origin',(50.67,-24.985,1.7));
#1428=CARTESIAN_POINT('',(50.37,-28.97,1.7));
#1429=CARTESIAN_POINT('Origin',(50.67,-28.67,1.7));
#1430=CARTESIAN_POINT('',(50.37,-33.47,1.7));
#1431=CARTESIAN_POINT('',(50.37,-24.985,1.7));
#1432=CARTESIAN_POINT('Origin',(50.67,-33.77,1.7));
#1433=CARTESIAN_POINT('Origin',(35.985,-28.67,1.7));
#1434=CARTESIAN_POINT('',(44.47,-28.97,1.7));
#1435=CARTESIAN_POINT('Origin',(44.17,-28.67,1.7));
#1436=CARTESIAN_POINT('',(35.985,-28.97,1.7));
#1437=CARTESIAN_POINT('Origin',(44.17,-27.235,1.7));
#1438=CARTESIAN_POINT('',(44.47,-33.47,1.7));
#1439=CARTESIAN_POINT('Origin',(44.17,-33.77,1.7));
#1440=CARTESIAN_POINT('',(44.47,-27.235,1.7));
#1441=CARTESIAN_POINT('Origin',(38.935,-33.77,1.7));
#1442=CARTESIAN_POINT('',(38.935,-33.47,1.7));
#1443=CARTESIAN_POINT('Origin',(50.37,-33.47,0.));
#1444=CARTESIAN_POINT('',(50.37,-33.47,0.));
#1445=CARTESIAN_POINT('',(50.37,-33.47,0.));
#1446=CARTESIAN_POINT('',(44.47,-33.47,0.));
#1447=CARTESIAN_POINT('',(50.37,-33.47,0.));
#1448=CARTESIAN_POINT('',(44.47,-33.47,0.));
#1449=CARTESIAN_POINT('Origin',(50.37,-28.97,0.));
#1450=CARTESIAN_POINT('',(50.37,-28.97,0.));
#1451=CARTESIAN_POINT('',(50.37,-28.97,0.));
#1452=CARTESIAN_POINT('',(50.37,-28.97,0.));
#1453=CARTESIAN_POINT('Origin',(28.615,-18.1,1.7));
#1454=CARTESIAN_POINT('',(29.73,-17.8,1.7));
#1455=CARTESIAN_POINT('Origin',(30.03,-18.1,1.7));
#1456=CARTESIAN_POINT('',(26.82,-17.8,1.7));
#1457=CARTESIAN_POINT('',(28.615,-17.8,1.7));
#1458=CARTESIAN_POINT('Origin',(26.52,-18.1,1.7));
#1459=CARTESIAN_POINT('Origin',(30.03,-17.165,1.7));
#1460=CARTESIAN_POINT('',(29.73,-13.33,1.7));
#1461=CARTESIAN_POINT('Origin',(30.03,-13.03,1.7));
#1462=CARTESIAN_POINT('',(29.73,-17.165,1.7));
#1463=CARTESIAN_POINT('Origin',(27.16,-13.03,1.7));
#1464=CARTESIAN_POINT('',(26.82,-13.33,1.7));
#1465=CARTESIAN_POINT('Origin',(26.52,-13.03,1.7));
#1466=CARTESIAN_POINT('',(27.16,-13.33,1.7));
#1467=CARTESIAN_POINT('Origin',(26.52,-19.4,1.7));
#1468=CARTESIAN_POINT('',(26.82,-19.4,1.7));
#1469=CARTESIAN_POINT('Origin',(26.82,-17.8,0.));
#1470=CARTESIAN_POINT('',(26.82,-17.8,0.));
#1471=CARTESIAN_POINT('',(26.82,-17.8,0.));
#1472=CARTESIAN_POINT('',(26.82,-13.33,0.));
#1473=CARTESIAN_POINT('',(26.82,-17.8,0.));
#1474=CARTESIAN_POINT('',(26.82,-13.33,0.));
#1475=CARTESIAN_POINT('Origin',(29.73,-17.8,0.));
#1476=CARTESIAN_POINT('',(29.73,-17.8,0.));
#1477=CARTESIAN_POINT('',(29.73,-17.8,0.));
#1478=CARTESIAN_POINT('',(29.73,-17.8,0.));
#1479=CARTESIAN_POINT('Origin',(25.86,-11.6,1.7));
#1480=CARTESIAN_POINT('',(25.56,-2.2,1.7));
#1481=CARTESIAN_POINT('Origin',(25.86,-1.9,1.7));
#1482=CARTESIAN_POINT('',(25.56,-5.17,1.7));
#1483=CARTESIAN_POINT('',(25.56,-11.6,1.7));
#1484=CARTESIAN_POINT('Origin',(25.86,-5.47,1.7));
#1485=CARTESIAN_POINT('Origin',(25.35,-1.9,1.7));
#1486=CARTESIAN_POINT('',(23.2,-2.2,1.7));
#1487=CARTESIAN_POINT('Origin',(22.9,-1.9,1.7));
#1488=CARTESIAN_POINT('',(25.35,-2.2,1.7));
#1489=CARTESIAN_POINT('Origin',(22.9,-13.085,1.7));
#1490=CARTESIAN_POINT('',(23.2,-5.17,1.7));
#1491=CARTESIAN_POINT('Origin',(22.9,-5.47,1.7));
#1492=CARTESIAN_POINT('',(23.2,-13.085,1.7));
#1493=CARTESIAN_POINT('Origin',(26.53,-5.47,1.7));
#1494=CARTESIAN_POINT('',(26.53,-5.17,1.7));
#1495=CARTESIAN_POINT('Origin',(25.56,-5.17,0.));
#1496=CARTESIAN_POINT('',(25.56,-5.17,0.));
#1497=CARTESIAN_POINT('',(25.56,-5.17,0.));
#1498=CARTESIAN_POINT('',(23.2,-5.17,0.));
#1499=CARTESIAN_POINT('',(25.56,-5.17,0.));
#1500=CARTESIAN_POINT('',(23.2,-5.17,0.));
#1501=CARTESIAN_POINT('Origin',(25.56,-2.2,0.));
#1502=CARTESIAN_POINT('',(25.56,-2.2,0.));
#1503=CARTESIAN_POINT('',(25.56,-2.2,0.));
#1504=CARTESIAN_POINT('',(25.56,-2.2,0.));
#1505=CARTESIAN_POINT('Origin',(17.72,-6.12,1.7));
#1506=CARTESIAN_POINT('',(7.94,-5.82,1.7));
#1507=CARTESIAN_POINT('Origin',(8.24,-6.12,1.7));
#1508=CARTESIAN_POINT('',(3.44,-5.82,1.7));
#1509=CARTESIAN_POINT('',(17.72,-5.82,1.7));
#1510=CARTESIAN_POINT('Origin',(3.14,-6.12,1.7));
#1511=CARTESIAN_POINT('Origin',(8.24,-11.16,1.7));
#1512=CARTESIAN_POINT('',(7.94,-1.32,1.7));
#1513=CARTESIAN_POINT('Origin',(8.24,-1.02,1.7));
#1514=CARTESIAN_POINT('',(7.94,-11.16,1.7));
#1515=CARTESIAN_POINT('Origin',(15.47,-1.02,1.7));
#1516=CARTESIAN_POINT('',(3.44,-1.32,1.7));
#1517=CARTESIAN_POINT('Origin',(3.14,-1.02,1.7));
#1518=CARTESIAN_POINT('',(15.47,-1.32,1.7));
#1519=CARTESIAN_POINT('Origin',(3.14,-13.41,1.7));
#1520=CARTESIAN_POINT('',(3.44,-13.41,1.7));
#1521=CARTESIAN_POINT('Origin',(3.44,-5.82,0.));
#1522=CARTESIAN_POINT('',(3.44,-5.82,0.));
#1523=CARTESIAN_POINT('',(3.44,-5.82,0.));
#1524=CARTESIAN_POINT('',(3.44,-1.32,0.));
#1525=CARTESIAN_POINT('',(3.44,-5.82,0.));
#1526=CARTESIAN_POINT('',(3.44,-1.32,0.));
#1527=CARTESIAN_POINT('Origin',(7.94,-5.82,0.));
#1528=CARTESIAN_POINT('',(7.94,-5.82,0.));
#1529=CARTESIAN_POINT('',(7.94,-5.82,0.));
#1530=CARTESIAN_POINT('',(7.94,-5.82,0.));
#1531=CARTESIAN_POINT('Origin',(54.4,-31.5,-1.));
#1532=CARTESIAN_POINT('',(57.4,-41.4,-1.));
#1533=CARTESIAN_POINT('Origin',(54.4,-41.4,-1.));
#1534=CARTESIAN_POINT('',(57.4,-0.599999999999996,-1.));
#1535=CARTESIAN_POINT('',(57.4,-31.5,-1.));
#1536=CARTESIAN_POINT('Origin',(54.4,-0.599999999999996,-1.));
#1537=CARTESIAN_POINT('Origin',(13.75,-41.4,-1.));
#1538=CARTESIAN_POINT('',(0.600000000000001,-44.4,-1.));
#1539=CARTESIAN_POINT('Origin',(0.600000000000001,-41.4,-1.));
#1540=CARTESIAN_POINT('',(54.4,-44.4,-1.));
#1541=CARTESIAN_POINT('',(13.75,-44.4,-1.));
#1542=CARTESIAN_POINT('Origin',(54.4,-41.4,-1.));
#1543=CARTESIAN_POINT('Origin',(0.600000000000001,-10.5,-1.));
#1544=CARTESIAN_POINT('',(-2.4,-41.4,-1.));
#1545=CARTESIAN_POINT('Origin',(0.600000000000001,-41.4,-1.));
#1546=CARTESIAN_POINT('',(-2.4,-0.600000000000001,-1.));
#1547=CARTESIAN_POINT('Origin',(0.600000000000001,-0.600000000000001,-1.));
#1548=CARTESIAN_POINT('',(-2.4,-10.5,-1.));
#1549=CARTESIAN_POINT('Origin',(41.25,-0.600000000000001,-1.));
#1550=CARTESIAN_POINT('',(54.4,2.4,-1.));
#1551=CARTESIAN_POINT('Origin',(54.4,-0.600000000000001,-1.));
#1552=CARTESIAN_POINT('',(0.600000000000005,2.4,-1.));
#1553=CARTESIAN_POINT('',(41.25,2.4,-1.));
#1554=CARTESIAN_POINT('Origin',(0.600000000000005,-0.600000000000001,-1.));
#1555=CARTESIAN_POINT('Origin',(0.600000000000005,-0.600000000000001,-1.));
#1556=CARTESIAN_POINT('Origin',(0.600000000000005,-0.600000000000001,-1.));
#1557=CARTESIAN_POINT('Origin',(0.600000000000001,-41.4,-1.));
#1558=CARTESIAN_POINT('Origin',(0.600000000000001,-41.4,-1.));
#1559=CARTESIAN_POINT('Origin',(54.4,-41.4,-1.));
#1560=CARTESIAN_POINT('Origin',(54.4,-41.4,-1.));
#1561=CARTESIAN_POINT('Origin',(54.4,-0.599999999999996,-1.));
#1562=CARTESIAN_POINT('Origin',(54.4,-0.599999999999996,-1.));
#1563=CARTESIAN_POINT('Origin',(0.600000000000001,-41.4,0.));
#1564=CARTESIAN_POINT('',(-2.4,-41.4,-2.));
#1565=CARTESIAN_POINT('',(-2.4,-41.4,0.));
#1566=CARTESIAN_POINT('',(0.600000000000005,-44.4,-2.));
#1567=CARTESIAN_POINT('Origin',(0.600000000000001,-41.4,-2.));
#1568=CARTESIAN_POINT('',(0.600000000000001,-44.4,0.));
#1569=CARTESIAN_POINT('Origin',(-2.4,0.,0.));
#1570=CARTESIAN_POINT('',(-2.4,-0.600000000000005,-2.));
#1571=CARTESIAN_POINT('',(-2.4,-0.600000000000001,0.));
#1572=CARTESIAN_POINT('',(-2.4,-42.4,-2.));
#1573=CARTESIAN_POINT('Origin',(0.600000000000005,-0.600000000000001,0.));
#1574=CARTESIAN_POINT('',(0.600000000000005,2.4,-2.));
#1575=CARTESIAN_POINT('',(0.600000000000005,2.4,0.));
#1576=CARTESIAN_POINT('Origin',(0.600000000000005,-0.600000000000001,-2.));
#1577=CARTESIAN_POINT('Origin',(55.,2.4,0.));
#1578=CARTESIAN_POINT('',(54.4,2.4,-2.));
#1579=CARTESIAN_POINT('',(54.4,2.4,0.));
#1580=CARTESIAN_POINT('',(-2.4,2.4,-2.));
#1581=CARTESIAN_POINT('Origin',(27.5,-21.,-2.));
#1582=CARTESIAN_POINT('',(57.4,-0.599999999999996,-2.));
#1583=CARTESIAN_POINT('Origin',(54.4,-0.599999999999996,-2.));
#1584=CARTESIAN_POINT('',(57.4,-41.4,-2.));
#1585=CARTESIAN_POINT('',(57.4,2.4,-2.));
#1586=CARTESIAN_POINT('',(54.4,-44.4,-2.));
#1587=CARTESIAN_POINT('Origin',(54.4,-41.4,-2.));
#1588=CARTESIAN_POINT('',(57.4,-44.4,-2.));
#1589=CARTESIAN_POINT('',(55.4,-42.4,-2.));
#1590=CARTESIAN_POINT('',(55.4,0.4,-2.));
#1591=CARTESIAN_POINT('',(55.4,-44.4,-2.));
#1592=CARTESIAN_POINT('',(-0.4,0.4,-2.));
#1593=CARTESIAN_POINT('',(57.4,0.400000000000002,-2.));
#1594=CARTESIAN_POINT('',(-0.4,-42.4,-2.));
#1595=CARTESIAN_POINT('',(-0.400000000000002,-44.4,-2.));
#1596=CARTESIAN_POINT('',(57.4,-42.4,-2.));
#1597=CARTESIAN_POINT('Origin',(54.4,-0.599999999999996,0.));
#1598=CARTESIAN_POINT('',(57.4,-0.599999999999996,0.));
#1599=CARTESIAN_POINT('Origin',(0.,-44.4,0.));
#1600=CARTESIAN_POINT('',(54.4,-44.4,0.));
#1601=CARTESIAN_POINT('Origin',(54.4,-41.4,0.));
#1602=CARTESIAN_POINT('',(57.4,-41.4,0.));
#1603=CARTESIAN_POINT('Origin',(57.4,-42.,0.));
#1604=CARTESIAN_POINT('Origin',(-0.4,-42.4,0.));
#1605=CARTESIAN_POINT('',(55.4,-42.4,0.));
#1606=CARTESIAN_POINT('',(-0.4,-42.4,0.));
#1607=CARTESIAN_POINT('',(13.55,-42.4,0.));
#1608=CARTESIAN_POINT('',(55.4,-42.4,0.));
#1609=CARTESIAN_POINT('',(-0.4,-42.4,0.));
#1610=CARTESIAN_POINT('Origin',(-0.400000000000002,0.4,0.));
#1611=CARTESIAN_POINT('',(-0.4,0.400000000000002,0.));
#1612=CARTESIAN_POINT('',(-0.4,-10.3,0.));
#1613=CARTESIAN_POINT('',(-0.4,0.400000000000002,0.));
#1614=CARTESIAN_POINT('Origin',(55.4,0.400000000000002,0.));
#1615=CARTESIAN_POINT('',(55.4,0.4,0.));
#1616=CARTESIAN_POINT('',(41.45,0.4,0.));
#1617=CARTESIAN_POINT('',(55.4,0.4,0.));
#1618=CARTESIAN_POINT('Origin',(55.4,-42.4,0.));
#1619=CARTESIAN_POINT('',(55.4,-31.7,0.));
#1620=CARTESIAN_POINT('Origin',(44.47,-28.97,0.));
#1621=CARTESIAN_POINT('',(44.47,-28.97,0.));
#1622=CARTESIAN_POINT('',(44.47,-28.97,0.));
#1623=CARTESIAN_POINT('',(44.47,-28.97,0.));
#1624=CARTESIAN_POINT('Origin',(44.47,-33.47,0.));
#1625=CARTESIAN_POINT('',(44.47,-33.47,0.));
#1626=CARTESIAN_POINT('Origin',(29.73,-13.33,0.));
#1627=CARTESIAN_POINT('',(29.73,-13.33,0.));
#1628=CARTESIAN_POINT('',(29.73,-13.33,0.));
#1629=CARTESIAN_POINT('',(29.73,-13.33,0.));
#1630=CARTESIAN_POINT('Origin',(26.82,-13.33,0.));
#1631=CARTESIAN_POINT('',(26.82,-13.33,0.));
#1632=CARTESIAN_POINT('Origin',(23.2,-2.2,0.));
#1633=CARTESIAN_POINT('',(23.2,-2.2,0.));
#1634=CARTESIAN_POINT('',(23.2,-2.2,0.));
#1635=CARTESIAN_POINT('',(23.2,-2.2,0.));
#1636=CARTESIAN_POINT('Origin',(23.2,-5.17,0.));
#1637=CARTESIAN_POINT('',(23.2,-5.17,0.));
#1638=CARTESIAN_POINT('Origin',(7.94,-1.32,0.));
#1639=CARTESIAN_POINT('',(7.94,-1.32,0.));
#1640=CARTESIAN_POINT('',(7.94,-1.32,0.));
#1641=CARTESIAN_POINT('',(7.94,-1.32,0.));
#1642=CARTESIAN_POINT('Origin',(3.44,-1.32,0.));
#1643=CARTESIAN_POINT('',(3.44,-1.32,0.));
#1644=CARTESIAN_POINT('Origin',(27.5,-21.,0.));
#1645=UNCERTAINTY_MEASURE_WITH_UNIT(LENGTH_MEASURE(0.01),#1649,
'DISTANCE_ACCURACY_VALUE',
'Maximum model space distance between geometric entities at asserted c
onnectivities');
#1646=UNCERTAINTY_MEASURE_WITH_UNIT(LENGTH_MEASURE(0.01),#1649,
'DISTANCE_ACCURACY_VALUE',
'Maximum model space distance between geometric entities at asserted c
onnectivities');
#1647=(
GEOMETRIC_REPRESENTATION_CONTEXT(3)
GLOBAL_UNCERTAINTY_ASSIGNED_CONTEXT((#1645))
GLOBAL_UNIT_ASSIGNED_CONTEXT((#1649,#1651,#1652))
REPRESENTATION_CONTEXT('','3D')
);
#1648=(
GEOMETRIC_REPRESENTATION_CONTEXT(3)
GLOBAL_UNCERTAINTY_ASSIGNED_CONTEXT((#1646))
GLOBAL_UNIT_ASSIGNED_CONTEXT((#1649,#1651,#1652))
REPRESENTATION_CONTEXT('','3D')
);
#1649=(
LENGTH_UNIT()
NAMED_UNIT(*)
SI_UNIT(.MILLI.,.METRE.)
);
#1650=(
LENGTH_UNIT()
NAMED_UNIT(*)
SI_UNIT($,.METRE.)
);
#1651=(
NAMED_UNIT(*)
PLANE_ANGLE_UNIT()
SI_UNIT($,.RADIAN.)
);
#1652=(
NAMED_UNIT(*)
SI_UNIT($,.STERADIAN.)
SOLID_ANGLE_UNIT()
);
#1653=SHAPE_DEFINITION_REPRESENTATION(#1654,#1655);
#1654=PRODUCT_DEFINITION_SHAPE('',$,#1657);
#1655=SHAPE_REPRESENTATION('',(#991),#1647);
#1656=PRODUCT_DEFINITION_CONTEXT('part definition',#1661,'design');
#1657=PRODUCT_DEFINITION('top case','top case',#1658,#1656);
#1658=PRODUCT_DEFINITION_FORMATION('',$,#1663);
#1659=PRODUCT_RELATED_PRODUCT_CATEGORY('top case','top case',(#1663));
#1660=APPLICATION_PROTOCOL_DEFINITION('international standard',
'automotive_design',2009,#1661);
#1661=APPLICATION_CONTEXT(
'Core Data for Automotive Mechanical Design Process');
#1662=PRODUCT_CONTEXT('part definition',#1661,'mechanical');
#1663=PRODUCT('top case','top case',$,(#1662));
#1664=PRESENTATION_STYLE_ASSIGNMENT((#1665));
#1665=SURFACE_STYLE_USAGE(.BOTH.,#1666);
#1666=SURFACE_SIDE_STYLE('',(#1667));
#1667=SURFACE_STYLE_FILL_AREA(#1668);
#1668=FILL_AREA_STYLE('Steel - Satin',(#1669));
#1669=FILL_AREA_STYLE_COLOUR('Steel - Satin',#1670);
#1670=COLOUR_RGB('Steel - Satin',0.627450980392157,0.627450980392157,0.627450980392157);
ENDSEC;
END-ISO-10303-21;
